<?xml version="1.0" standalone="no"?>
<!DOCTYPE svg PUBLIC "-//W3C//DTD SVG 20010904//EN"
 "http://www.w3.org/TR/2001/REC-SVG-20010904/DTD/svg10.dtd">
<svg version="1.0" xmlns="http://www.w3.org/2000/svg"
 width="3840.000000pt" height="2160.000000pt" viewBox="0 0 3840.000000 2160.000000"
 preserveAspectRatio="xMidYMid meet">
<style>
    .animation{
        animation: blinking 2s infinite;
    }
    @keyframes blinking{
        0%,100%{
            stroke: #706f7d;
        }
        50%{
            stroke: #9f9ffa8;
        }
    }
</style>
<g transform="translate(0.000000,2160.000000) scale(0.100000,-0.100000)"
fill="#000000" stroke="none">
<path d="M0 10800 l0 -10800 6942 0 6942 0 25 23 26 22 -19 -22 -19 -23 34 0
c32 0 53 18 250 218 119 119 237 239 262 266 26 27 47 44 47 37 0 -6 -112
-125 -249 -264 -200 -201 -245 -253 -229 -255 11 -2 25 2 29 10 7 10 9 10 9 1
0 -10 523 -13 2580 -13 l2581 0 48 38 c27 20 109 77 182 127 74 50 192 130
264 179 71 49 231 157 355 241 124 84 281 191 350 238 69 47 256 174 415 282
160 108 367 248 460 312 94 63 280 189 415 280 135 91 250 170 255 176 6 6 -3
2 -20 -8 -16 -10 -86 -52 -155 -93 -69 -41 -251 -150 -405 -242 -477 -285
-1002 -596 -1455 -865 -239 -142 -513 -304 -607 -361 -95 -57 -173 -99 -173
-94 0 5 26 23 57 42 32 18 66 38 75 43 10 6 345 206 745 446 837 501 1934
1155 2158 1287 57 34 571 376 589 392 4 5 -22 46 -59 92 -37 45 -84 103 -104
128 -20 24 -52 62 -72 85 -19 22 -53 63 -75 90 -21 28 -41 52 -44 55 -3 3 -22
26 -43 52 -21 26 -43 53 -50 60 -7 7 -28 33 -47 58 -19 25 -43 54 -53 65 -11
11 -31 36 -45 55 -15 19 -30 37 -33 40 -4 3 -29 34 -57 70 -73 94 -92 111
-116 104 -17 -4 -18 -3 -6 5 8 6 20 11 27 11 10 0 147 -157 141 -162 -2 -2 11
-17 27 -33 17 -17 43 -46 59 -65 15 -19 43 -53 61 -75 300 -361 400 -483 453
-547 35 -43 67 -77 71 -75 7 2 672 -464 1195 -836 45 -31 92 -65 106 -75 21
-14 505 -359 577 -411 12 -9 23 -20 23 -24 0 -5 -11 0 -24 10 -13 10 -32 24
-42 31 -50 33 -259 179 -547 383 -175 123 -328 231 -340 239 -12 8 -98 69
-192 135 -509 361 -745 525 -755 525 -6 0 -122 -76 -258 -168 -136 -93 -281
-191 -322 -218 -41 -28 -138 -93 -215 -145 -316 -215 -1573 -1066 -2262 -1531
-128 -86 -233 -154 -233 -151 0 4 -6 0 -12 -9 -7 -8 -69 -53 -138 -99 l-125
-84 9579 -3 c5269 -1 9581 -1 9583 1 2 2 2 3804 1 8449 l-3 8446 -103 -582
c-99 -562 -169 -957 -362 -2046 -148 -834 -335 -1894 -415 -2345 -41 -231
-103 -584 -139 -785 -187 -1052 -242 -1365 -297 -1675 -211 -1197 -290 -1630
-298 -1638 -10 -10 -100 -45 -761 -294 -802 -302 -1044 -393 -1050 -393 -13 1
39 24 133 60 56 21 163 61 237 90 74 28 158 60 185 70 28 10 104 39 170 65 66
25 172 66 235 90 63 24 252 96 420 160 168 64 331 126 363 138 40 15 59 28 62
42 3 11 45 250 95 530 49 281 139 791 200 1135 61 344 137 776 170 960 32 184
111 630 175 990 64 360 122 691 130 735 7 44 45 260 85 480 39 220 152 857
250 1415 99 558 218 1231 265 1495 46 264 119 676 162 915 42 239 80 437 85
438 4 2 8 87 8 190 l0 186 -29 -46 c-16 -26 -99 -160 -184 -300 -85 -139 -266
-435 -402 -658 -136 -223 -316 -517 -400 -655 -120 -197 -818 -1339 -1385
-2265 -193 -315 -448 -733 -494 -807 -28 -45 -82 -133 -120 -195 -38 -62 -159
-259 -269 -438 -111 -179 -236 -383 -280 -455 -114 -186 -170 -275 -175 -275
-2 0 5 15 16 33 11 17 89 147 174 287 190 315 852 1400 883 1449 12 20 60 99
107 176 185 305 786 1289 873 1430 51 83 316 517 590 965 274 448 539 883 590
965 51 83 161 263 245 400 84 138 173 284 199 325 25 41 49 77 53 78 5 2 8 26
8 53 0 40 -3 49 -18 49 -9 0 -215 -58 -457 -129 -242 -71 -933 -274 -1535
-451 -602 -177 -1192 -350 -1310 -385 -118 -34 -685 -201 -1260 -370 -2861
-840 -3313 -974 -3480 -1029 -160 -53 -375 -127 -555 -191 -71 -25 -164 -58
-205 -72 -87 -30 -95 -36 -108 -83 l-10 -35 -1 33 c-1 30 -3 33 -23 27 -52
-15 -137 -49 -203 -80 -38 -19 -106 -47 -150 -63 -108 -39 -342 -130 -385
-150 -19 -8 -55 -23 -80 -32 -25 -10 -108 -41 -185 -70 -157 -58 -146 -54
-275 -105 -52 -20 -101 -38 -110 -40 -20 -5 -108 -36 -190 -68 -36 -14 -78
-28 -93 -31 -15 -4 -25 -11 -22 -17 4 -5 3 -9 -2 -8 -4 1 -10 0 -13 -1 -19 -7
-39 -7 -34 1 3 5 0 9 -5 9 -6 0 -11 -4 -11 -8 0 -5 -30 -15 -67 -22 -38 -8
-72 -15 -78 -17 -5 -1 -48 -11 -95 -22 -47 -10 -128 -29 -180 -41 -52 -12
-115 -26 -140 -31 -25 -5 -72 -16 -105 -24 -33 -7 -141 -32 -240 -55 -282 -65
-534 -127 -730 -179 -99 -27 -301 -81 -450 -121 -148 -39 -373 -100 -500 -135
-126 -34 -243 -66 -260 -70 -16 -5 -34 -9 -40 -11 -29 -7 -202 -63 -217 -69
-10 -4 -18 -3 -18 3 0 15 31 37 49 34 13 -2 326 98 421 135 14 5 217 76 545
190 72 25 163 57 203 70 40 14 71 27 69 30 -5 4 -348 -95 -1822 -527 -1262
-371 -1189 -348 -1227 -382 -17 -15 -35 -28 -39 -28 -4 0 -15 -7 -23 -16 -9
-9 -38 -32 -65 -52 -26 -21 -72 -57 -101 -82 -54 -46 -137 -115 -155 -128 -34
-26 -148 -120 -193 -160 -30 -26 -70 -58 -90 -72 -89 -61 -121 -88 -114 -96 4
-5 3 -6 -2 -2 -8 7 -110 -56 -154 -96 -13 -12 -27 -20 -30 -19 -10 2 -82 -39
-82 -47 0 -3 -16 -12 -35 -20 -19 -8 -35 -17 -35 -22 0 -4 -5 -8 -11 -8 -6 0
-34 -15 -62 -33 -87 -56 -110 -70 -157 -95 -25 -13 -47 -27 -50 -31 -3 -4 -18
-14 -35 -23 -49 -24 -107 -58 -153 -89 -24 -16 -45 -29 -48 -29 -3 0 -30 -16
-60 -35 -30 -19 -56 -35 -58 -35 -13 0 -475 -288 -500 -312 -11 -10 -24 -18
-29 -18 -5 0 -41 -21 -81 -46 -39 -26 -98 -64 -131 -85 -33 -22 -69 -46 -80
-54 -10 -8 -23 -15 -27 -15 -4 0 -75 -45 -158 -100 -82 -55 -161 -105 -175
-112 -14 -6 -25 -15 -25 -20 0 -4 -7 -8 -15 -8 -8 0 -24 -9 -34 -19 -11 -11
-21 -17 -24 -15 -2 2 -10 -2 -17 -11 -7 -8 -17 -15 -22 -15 -5 0 -33 -16 -63
-35 -192 -122 -174 -106 130 120 132 99 272 204 310 235 39 31 162 126 275
211 113 85 232 176 265 202 33 26 123 95 200 153 77 59 148 115 158 126 10 10
21 18 25 18 4 0 19 10 33 22 14 13 32 28 41 33 9 6 45 32 80 59 34 28 137 106
228 174 91 68 174 131 184 139 73 60 299 221 389 279 206 132 259 164 268 164
5 0 9 3 9 8 0 4 12 16 27 26 17 13 24 14 19 5 -4 -8 -1 -6 7 4 8 9 17 17 21
17 3 0 50 29 104 64 53 35 112 71 130 80 17 9 32 23 32 30 0 8 -23 42 -51 76
-28 33 -50 63 -48 65 2 2 24 -21 49 -50 62 -72 74 -79 116 -65 19 6 34 15 34
20 0 4 16 16 37 25 54 26 189 125 263 193 36 33 67 58 69 56 2 -2 -3 -12 -12
-22 -28 -31 -19 -35 16 -8 19 15 37 26 41 26 11 0 172 108 186 125 7 8 17 15
22 15 6 0 47 24 91 53 87 57 161 105 189 122 94 57 371 251 386 270 11 14 22
21 24 15 2 -6 26 4 53 23 28 18 91 60 140 93 168 113 158 101 -34 -40 -79 -58
-148 -106 -152 -106 -4 0 -10 -11 -13 -25 -4 -14 -11 -23 -16 -20 -11 7 -46
-14 -106 -62 -23 -18 -44 -33 -48 -33 -4 0 -13 -6 -21 -12 -7 -7 -30 -26 -51
-43 -21 -16 -46 -38 -56 -47 -10 -10 -19 -17 -20 -16 -5 4 -59 -35 -54 -39 5
-5 120 58 124 69 2 4 8 8 13 8 14 0 209 132 209 142 0 5 8 12 18 16 10 4 165
105 344 225 180 120 332 216 338 212 6 -4 9 -1 8 7 -2 7 5 12 14 12 10 -1 16
3 15 8 -1 6 4 13 12 16 9 3 11 0 6 -8 -5 -9 -4 -11 4 -6 6 4 9 11 6 16 -3 5 5
16 17 24 26 19 42 21 32 4 -4 -7 -3 -8 5 -4 6 4 9 11 6 16 -3 5 41 39 97 76
57 37 202 133 323 214 226 151 272 179 261 162 -3 -5 -87 -63 -186 -127 -100
-65 -179 -120 -176 -122 2 -2 170 106 372 240 203 134 416 274 474 312 58 38
202 132 320 210 118 78 266 175 329 216 63 41 198 129 300 196 102 67 258 168
346 226 88 57 239 156 335 219 96 63 209 136 250 163 95 62 301 197 869 570
250 164 471 302 490 308 20 5 65 7 100 4 40 -3 59 -2 50 4 -9 6 40 8 128 7 77
-2 140 -1 138 2 -2 3 384 18 858 33 474 16 970 32 1102 38 228 8 2205 77 2855
99 168 6 953 33 1745 60 792 27 1604 54 1805 60 201 7 375 14 388 16 l22 4 0
2065 0 2065 -7068 0 -7067 0 -101 -117 c-146 -170 -416 -483 -589 -684 -337
-390 -395 -458 -395 -466 0 -5 -16 -25 -36 -44 -52 -49 -1057 -1204 -1078
-1237 -4 -6 17 -5 51 3 1247 291 3391 790 3847 895 98 22 180 39 182 37 4 -3
-137 -41 -266 -72 -30 -7 -181 -43 -335 -79 -340 -82 -717 -170 -1700 -401
-412 -96 -777 -182 -810 -190 -64 -15 -509 -119 -818 -191 -104 -24 -191 -44
-193 -44 -22 0 43 81 331 414 184 213 335 389 335 392 0 4 -8 0 -17 -7 -16
-11 -16 -11 -5 1 7 8 18 15 25 15 7 0 12 7 12 15 0 8 5 15 12 15 7 0 18 6 25
14 11 12 10 12 -2 5 -8 -4 46 59 121 141 110 122 406 461 804 920 222 255 482
553 496 565 9 8 31 34 48 58 l33 42 -4988 0 -4988 0 35 -38 34 -37 -40 38 -41
37 -1034 0 -1035 0 -494 -1388 c-470 -1320 -637 -1786 -659 -1842 -5 -14 -11
-29 -12 -35 -7 -27 -40 -117 -47 -128 -4 -6 -9 -20 -10 -30 -4 -21 -33 -67
-33 -51 0 5 5 15 12 22 7 7 8 12 4 12 -5 0 -3 7 4 15 7 8 9 15 6 15 -4 0 -1
10 6 23 6 12 13 29 15 39 3 16 115 338 283 813 192 544 885 2490 895 2518 7
16 -287 17 -6074 17 l-6081 0 0 -10800z m16192 10771 c24 -10 106 -49 183 -86
279 -134 913 -437 1195 -570 96 -46 238 -113 315 -150 77 -37 327 -156 555
-265 228 -109 615 -293 860 -410 245 -117 490 -234 545 -260 55 -26 163 -78
240 -115 774 -371 1683 -805 1689 -805 3 0 51 46 106 103 55 56 100 97 100 90
0 -6 -10 -20 -22 -30 -13 -11 -56 -54 -97 -96 l-75 -76 160 -77 159 -76 165
36 c91 19 714 157 1385 305 2837 627 2705 598 2694 587 -6 -6 -218 -61 -309
-80 -41 -9 -165 -36 -275 -61 -110 -25 -990 -221 -1955 -435 -1004 -223 -1759
-396 -1765 -403 -5 -7 -107 -136 -225 -287 -118 -150 -242 -308 -275 -351 -70
-90 -746 -952 -850 -1084 -285 -361 -620 -788 -627 -800 -8 -13 -12 -15 1597
800 430 218 1045 529 1750 885 264 133 692 350 950 481 440 222 477 239 580
263 61 14 222 53 360 85 137 33 254 57 259 54 5 -4 -51 -21 -125 -38 -74 -18
-239 -58 -368 -89 l-234 -56 -346 -176 c-190 -97 -463 -236 -606 -309 -143
-73 -480 -244 -750 -380 -269 -136 -602 -305 -740 -375 -137 -70 -492 -250
-789 -400 -899 -455 -1442 -732 -1421 -725 11 4 184 65 385 137 201 71 529
188 730 259 201 71 401 143 445 159 44 16 184 66 310 110 127 45 329 117 450
160 121 43 355 126 520 185 165 58 444 157 620 220 176 63 487 173 690 245
204 72 426 152 495 177 69 25 206 74 305 108 99 35 307 109 463 164 156 56
285 101 288 101 2 0 4 -5 4 -11 0 -5 -4 -8 -9 -4 -5 3 -12 1 -16 -5 -4 -6 -11
-8 -16 -5 -5 4 -9 1 -9 -6 0 -7 -3 -9 -7 -6 -3 4 -11 2 -18 -3 -6 -5 -22 -12
-36 -14 -13 -3 -25 -5 -26 -7 -2 -1 -7 -3 -13 -4 -5 -1 -13 -4 -17 -5 -5 -1
-11 -2 -15 -1 -5 0 -8 -3 -8 -8 0 -5 -15 -13 -32 -17 -43 -10 -38 -8 -80 -27
-21 -10 -45 -18 -55 -20 -10 -2 -35 -11 -57 -20 -21 -9 -40 -17 -43 -17 -2 0
-86 -30 -186 -66 -297 -107 -448 -161 -1162 -414 -374 -133 -768 -273 -875
-312 -107 -39 -269 -96 -360 -128 -91 -32 -520 -185 -955 -339 -726 -259 -863
-308 -1043 -372 -34 -12 -61 -24 -59 -26 4 -3 117 35 462 157 307 108 2652
928 3080 1076 182 63 374 130 428 149 54 19 102 33 107 30 5 -3 10 -1 12 4 3
9 551 203 578 205 8 1 17 4 20 8 3 4 15 9 25 11 11 2 27 7 35 10 75 31 149 54
155 49 3 -4 10 0 14 7 5 8 14 10 22 6 7 -5 -28 -22 -97 -46 -60 -20 -112 -35
-116 -33 -3 2 -8 1 -10 -4 -3 -8 -105 -45 -508 -186 -102 -35 -347 -122 -545
-191 -198 -70 -416 -147 -485 -170 -69 -24 -255 -89 -415 -145 -1790 -629
-3552 -1243 -3571 -1246 -12 -1 -30 -6 -40 -12 -28 -15 -36 -15 -45 0 -6 9 -8
6 -6 -9 0 -12 4 -20 7 -18 6 4 54 -38 75 -67 6 -7 94 -108 195 -224 191 -217
333 -380 370 -424 11 -14 33 -38 49 -55 24 -25 705 -803 880 -1005 31 -36 77
-87 102 -115 25 -27 103 -117 174 -200 71 -82 189 -218 262 -301 73 -84 133
-155 133 -158 0 -3 -47 47 -104 111 -56 65 -179 204 -272 309 -221 249 -414
468 -784 889 -63 72 -126 144 -141 160 -15 17 -64 73 -109 125 -82 94 -146
166 -198 225 -44 49 -249 284 -333 381 -194 225 -233 264 -253 258 -48 -15
-66 -24 -66 -33 0 -5 -7 -69 -15 -143 -14 -125 -76 -734 -145 -1408 -31 -308
-38 -365 -46 -358 -2 3 1 51 7 109 6 57 12 122 15 144 2 22 11 119 19 215 9
96 45 460 80 808 35 348 61 640 58 648 -3 8 3 24 12 34 16 18 16 20 2 20 -9 0
-110 -70 -224 -155 -407 -303 -651 -484 -848 -630 -375 -278 -807 -600 -1007
-750 -110 -82 -208 -156 -219 -164 -16 -12 -47 -3 -255 73 -130 47 -240 84
-245 81 -4 -3 -70 12 -146 34 -76 22 -139 39 -140 37 -2 -2 79 -34 179 -71
101 -37 233 -87 293 -111 61 -23 173 -66 250 -94 77 -28 148 -57 159 -63 16
-11 260 -546 252 -554 -4 -5 -20 29 -173 367 -41 90 -75 166 -77 168 -2 1 -25
11 -52 21 -27 10 -105 40 -174 66 -69 26 -170 62 -225 80 -98 33 -155 53 -265
95 -76 30 -308 115 -407 151 -46 16 -115 34 -155 39 -40 5 -120 18 -178 29
-95 18 -158 29 -215 36 -11 1 -21 4 -22 5 -8 7 -29 4 -35 -5 -6 -7 -10 -6 -15
1 -5 7 -34 17 -65 24 -32 7 -58 16 -58 20 0 4 -20 6 -44 5 -25 -1 -43 2 -41 6
3 4 -7 9 -20 12 -14 2 -28 0 -31 -5 -3 -4 -14 2 -25 14 -12 13 -18 17 -14 11
4 -8 0 -13 -9 -13 -9 0 -16 5 -16 11 0 5 -4 8 -9 4 -12 -7 -61 15 -61 28 0 5
-7 7 -15 3 -8 -3 -15 0 -15 6 0 6 -3 8 -7 5 -3 -4 -17 0 -30 8 -13 9 -23 12
-23 8 0 -5 -4 -3 -8 3 -7 11 -71 48 -84 49 -3 0 -10 4 -15 8 -8 8 -70 37 -80
37 -7 0 69 -89 149 -175 38 -41 66 -75 61 -75 -4 -1 15 -9 42 -19 58 -21 327
-132 744 -305 585 -244 997 -415 1062 -440 l65 -27 186 -387 c315 -653 323
-671 300 -668 -9 2 -18 8 -20 14 -2 7 -8 10 -13 6 -5 -3 -9 -1 -9 4 0 6 -11
13 -25 16 -14 4 -25 11 -25 16 0 6 -4 10 -9 10 -10 0 -246 138 -561 330 -129
79 -260 157 -290 175 -30 17 -148 88 -261 157 -113 69 -217 131 -229 138 l-23
13 21 -27 c12 -15 92 -103 179 -194 231 -243 500 -529 638 -677 66 -70 138
-147 160 -170 22 -23 51 -55 64 -71 44 -53 -239 239 -470 486 -28 30 -133 140
-233 245 -316 332 -362 379 -391 413 -27 31 -164 119 -475 305 -69 41 -208
125 -310 187 -102 62 -246 150 -320 195 -241 146 -452 276 -570 349 -63 40
-174 107 -247 151 -72 44 -130 81 -128 83 2 2 111 -61 242 -139 639 -383 1609
-967 1668 -1004 28 -18 -43 59 -455 495 -86 91 -187 199 -226 240 -67 74 -72
77 -209 134 -77 33 -174 74 -215 92 -41 18 -222 94 -403 170 -180 75 -326 139
-324 140 2 2 75 -26 163 -62 87 -36 186 -76 219 -89 33 -13 112 -45 175 -73
63 -27 125 -53 138 -57 13 -4 101 -39 196 -79 l173 -73 -151 151 c-120 120
-166 159 -225 191 -41 22 -77 40 -80 41 -3 0 -22 8 -41 16 -45 20 -74 30 -79
28 -2 -1 -7 3 -10 9 -4 5 -29 20 -56 32 -28 13 -54 25 -59 27 -4 3 -5 -6 -1
-19 3 -13 3 -19 -2 -13 -22 28 -126 95 -193 123 -41 17 -89 39 -107 47 -17 9
-37 13 -44 9 -8 -5 -10 -4 -5 3 4 7 1 13 -8 13 -23 2 -27 3 -71 23 -42 19 -93
40 -185 75 -30 12 -64 26 -75 31 -53 24 -117 51 -166 70 -30 11 -67 27 -84 34
-16 8 -104 44 -195 80 -91 37 -184 76 -208 87 -23 10 -49 19 -57 19 -7 0 -16
4 -20 9 -5 10 54 -6 200 -52 44 -14 107 -33 140 -42 33 -10 95 -28 138 -42 43
-14 80 -23 83 -20 5 4 -92 47 -107 47 -5 0 -28 9 -52 19 -23 11 -117 47 -209
82 -93 34 -166 64 -164 66 2 2 28 -5 57 -16 30 -11 124 -45 209 -75 85 -30
297 -105 470 -166 173 -62 327 -114 341 -115 14 -2 40 -10 57 -19 17 -9 39
-18 49 -19 10 -2 32 -10 48 -16 17 -7 59 -22 95 -32 36 -11 88 -26 115 -35
300 -93 712 -215 740 -220 22 -3 301 -116 337 -136 13 -7 25 -13 28 -13 3 -1
34 -15 70 -31 36 -17 86 -39 112 -50 27 -10 48 -22 48 -26 0 -5 5 -8 12 -8 6
0 31 -9 55 -20 24 -11 62 -29 86 -40 92 -42 272 -115 477 -192 527 -197 754
-278 775 -278 11 0 72 39 135 86 63 47 219 163 345 257 620 461 751 559 890
662 199 148 636 473 807 602 135 100 137 102 105 107 -17 3 -198 19 -402 36
-395 33 -800 67 -1165 99 -124 11 -511 45 -860 76 -349 30 -828 73 -1065 94
-236 22 -628 56 -870 77 -242 21 -441 41 -443 44 -1 4 -27 5 -57 2 -38 -3 -55
-1 -55 7 0 7 -5 9 -11 6 -17 -11 -223 6 -208 17 10 6 7 7 -10 3 -33 -10 -222
5 -215 17 4 6 -7 7 -28 3 -19 -4 -88 -2 -154 4 -181 17 -218 22 -205 31 7 4
-31 10 -84 14 -53 4 -100 5 -103 2 -3 -3 14 -6 38 -6 24 0 41 -3 38 -6 -3 -3
-73 1 -154 8 -123 11 -139 14 -94 18 39 4 -48 15 -300 39 -195 18 -362 37
-370 42 -9 5 13 7 55 4 89 -6 -64 8 1765 -165 1468 -139 2012 -189 3365 -305
292 -25 654 -57 805 -70 625 -56 743 -66 745 -63 2 2 -276 284 -618 628 -1853
1865 -2431 2450 -2425 2456 4 3 2444 -2438 2874 -2876 122 -124 221 -220 221
-214 0 9 760 904 1031 1214 131 151 241 288 717 895 245 314 456 575 468 582
19 11 10 18 -113 76 -166 79 -686 328 -1155 552 -192 92 -395 189 -450 215
-116 55 -1196 572 -1395 667 -74 36 -180 87 -235 113 -55 26 -156 75 -225 107
-319 153 -858 412 -980 471 -74 35 -175 84 -225 107 -49 24 -188 90 -309 149
-120 58 -220 106 -221 106 -2 0 -115 55 -252 121 -136 67 -272 132 -300 145
-29 12 -53 25 -53 28 0 9 5 8 52 -13z m-1812 -86 c19 -19 32 -35 29 -35 -3 0
-20 16 -39 35 -19 19 -32 35 -29 35 3 0 20 -16 39 -35z m9465 -115 c-3 -5 -12
-10 -18 -10 -7 0 -6 4 3 10 19 12 23 12 15 0z m-12046 -14 c-4 -4 -986 -36
-2189 -71 -574 -17 -535 -16 -528 -10 8 8 2705 96 2717 88 2 -2 2 -5 0 -7z
m11 -36 c-6 -12 -14 -19 -17 -17 -2 3 1 15 7 27 6 12 14 19 17 17 2 -3 -1 -15
-7 -27z m11940 10 c-8 -5 -19 -10 -25 -10 -5 0 -3 5 5 10 8 5 20 10 25 10 6 0
3 -5 -5 -10z m8125 -10 c-11 -5 -29 -8 -40 -8 -16 0 -15 2 5 8 34 11 60 11 35
0z m-8195 -20 c-8 -5 -19 -10 -25 -10 -5 0 -3 5 5 10 8 5 20 10 25 10 6 0 3
-5 -5 -10z m8127 4 c-3 -3 -12 -4 -19 -1 -8 3 -5 6 6 6 11 1 17 -2 13 -5z
m-42 -9 c-38 -14 -85 -22 -85 -15 0 5 12 11 28 13 35 5 70 6 57 2z m-20318
-786 c-430 -966 -768 -1721 -814 -1819 -19 -41 -46 -101 -59 -133 -13 -31 -38
-82 -54 -112 -16 -30 -27 -55 -25 -55 3 0 -2 -11 -11 -25 -9 -14 -18 -24 -20
-22 -3 3 143 339 233 537 12 25 79 176 151 335 372 829 744 1655 838 1863 41
89 79 174 85 189 5 14 12 23 15 21 3 -3 -150 -354 -339 -779z m12153 756 c-14
-8 -29 -14 -35 -14 -5 0 1 6 15 14 14 8 30 14 35 14 6 0 -1 -6 -15 -14z m8068
10 c-6 -7 -174 -48 -611 -150 -199 -47 -380 -89 -402 -95 -22 -5 -87 -21 -145
-34 -58 -14 -202 -47 -320 -75 -118 -27 -352 -82 -520 -121 -168 -38 -352 -81
-410 -95 -58 -14 -117 -27 -132 -29 -15 -3 -31 -7 -36 -9 -4 -3 -27 -8 -51
-12 -24 -3 -54 -10 -67 -15 -13 -5 -25 -6 -28 -2 -3 5 57 22 132 40 75 17 301
70 502 117 201 47 664 155 1030 240 366 85 735 171 820 191 85 20 169 40 185
44 35 10 60 12 53 5z m-26184 -62 c39 -32 82 -68 96 -80 14 -12 106 -89 205
-169 99 -81 212 -175 250 -208 39 -34 105 -91 149 -126 43 -36 99 -85 125
-108 60 -57 -89 62 -617 496 -198 162 -278 222 -290 217 -18 -7 -886 -66 -937
-64 -65 3 277 35 635 59 170 12 286 23 288 30 7 19 25 10 96 -47z m18036 17
c-8 -5 -19 -10 -25 -10 -5 0 -3 5 5 10 8 5 20 10 25 10 6 0 3 -5 -5 -10z m-41
-14 c-9 -9 -172 -76 -176 -73 -2 2 34 20 79 40 77 33 108 43 97 33z m-19101
-53 c-16 -2 -40 -2 -55 0 -16 2 -3 4 27 4 30 0 43 -2 28 -4z m-160 -10 c-15
-2 -42 -2 -60 0 -18 2 -6 4 27 4 33 0 48 -2 33 -4z m19012 -45 c-128 -57 -563
-239 -566 -236 -4 5 587 257 601 257 6 0 -10 -10 -35 -21z m9138 -104 c-3 -3
-20 -7 -38 -9 -17 -2 -82 -18 -144 -34 -136 -37 -2831 -636 -3056 -680 -30 -6
-68 -13 -85 -16 -16 -4 -48 -8 -70 -10 -37 -4 -38 -4 -10 5 26 8 1815 406
2770 615 193 43 404 90 470 105 118 27 174 35 163 24z m-20007 -111 c-12 -20
-14 -14 -5 12 4 9 9 14 11 11 3 -2 0 -13 -6 -23z m10224 -58 c-38 -19 -74 -34
-80 -34 -13 1 127 68 140 67 6 0 -21 -15 -60 -33z m-10254 -8 c-10 -9 -11 -8
-5 6 3 10 9 15 12 12 3 -3 0 -11 -7 -18z m11329 -11 c0 -2 -8 -10 -17 -17 -16
-13 -17 -12 -4 4 13 16 21 21 21 13z m-1181 -26 c-35 -20 -322 -140 -327 -136
-4 5 21 17 143 66 39 16 95 40 125 54 54 24 91 35 59 16z m-10283 -276 c-63
-142 -246 -558 -407 -924 -160 -366 -312 -711 -337 -767 -25 -57 -49 -103 -54
-103 -4 0 3 21 17 47 14 27 25 51 25 55 0 4 26 67 59 140 32 73 132 300 221
503 89 204 250 568 358 810 107 242 201 455 209 474 8 18 16 31 18 29 3 -2
-47 -121 -109 -264z m11414 252 c0 -2 -8 -10 -17 -17 -16 -13 -17 -12 -4 4 13
16 21 21 21 13z m-40 -39 c0 -2 -10 -12 -22 -23 l-23 -19 19 23 c18 21 26 27
26 19z m-1440 -87 c-8 -5 -19 -10 -25 -10 -5 0 -3 5 5 10 8 5 20 10 25 10 6 0
3 -5 -5 -10z m6797 -6 c-3 -3 -12 -4 -19 -1 -8 3 -5 6 6 6 11 1 17 -2 13 -5z
m-6902 -38 c-71 -33 -124 -53 -115 -43 8 9 163 76 175 75 6 0 -21 -14 -60 -32z
m6815 20 c0 -11 -19 -15 -25 -6 -3 5 1 10 9 10 9 0 16 -2 16 -4z m-5390 -9 c0
-2 -10 -12 -22 -23 l-23 -19 19 23 c18 21 26 27 26 19z m5347 -3 c-3 -3 -12
-4 -19 -1 -8 3 -5 6 6 6 11 1 17 -2 13 -5z m-6897 -58 c0 -2 -55 -28 -122 -57
-207 -88 -261 -110 -265 -106 -3 4 365 165 380 166 4 1 7 -1 7 -3z m10677 -12
c-3 -3 -12 -4 -19 -1 -8 3 -5 6 6 6 11 1 17 -2 13 -5z m-9227 -38 c0 -2 -8
-10 -17 -17 -16 -13 -17 -12 -4 4 13 16 21 21 21 13z m9045 -26 c3 -6 -1 -7
-9 -4 -18 7 -21 14 -7 14 6 0 13 -4 16 -10z m-36 -14 c-17 -16 -2708 -988
-2914 -1053 -44 -14 -92 -32 -107 -39 -16 -8 -28 -10 -28 -5 0 5 8 11 18 14
21 6 249 89 667 242 362 132 1318 479 1710 620 143 51 287 103 320 115 157 57
202 72 225 76 13 3 43 13 65 23 35 16 57 19 44 7z m-25954 -7 c11 -16 1 -19
-13 -3 -7 8 -8 14 -3 14 5 0 13 -5 16 -11z m82 -69 c14 -11 22 -20 18 -20 -4
0 -18 9 -32 20 -14 11 -22 20 -18 20 4 0 18 -9 32 -20z m14992 -15 c-46 -25
-712 -305 -716 -301 -2 2 52 27 119 56 182 77 177 75 398 170 192 82 260 108
199 75z m-14868 -92 c13 -16 12 -17 -3 -4 -10 7 -18 15 -18 17 0 8 8 3 21 -13z
m22209 -47 c0 -2 -7 -7 -16 -10 -8 -3 -12 -2 -9 4 6 10 25 14 25 6z m-73 -22
c-3 -3 -12 -4 -19 -1 -8 3 -5 6 6 6 11 1 17 -2 13 -5z m-7999 -149 c-8 -9
-381 -166 -384 -162 -2 2 47 25 109 52 61 26 146 63 187 81 70 31 100 40 88
29z m10250 -10 c-9 -9 -141 -44 -421 -111 -147 -35 -270 -64 -272 -64 -3 0 -5
4 -5 9 0 6 8 10 18 10 16 0 564 131 627 150 35 10 61 13 53 6z m17 -17 c-199
-70 -366 -129 -489 -174 -82 -30 -152 -52 -154 -49 -8 8 -6 9 193 80 239 86
445 154 465 154 8 0 2 -5 -15 -11z m-4742 -15 c-7 -2 -19 -2 -25 0 -7 3 -2 5
12 5 14 0 19 -2 13 -5z m-46 -9 c-3 -3 -12 -4 -19 -1 -8 3 -5 6 6 6 11 1 17
-2 13 -5z m-40 -10 c-3 -3 -12 -4 -19 -1 -8 3 -5 6 6 6 11 1 17 -2 13 -5z
m-5838 -108 c-8 -9 -193 -86 -196 -82 -2 2 38 22 89 44 85 37 118 49 107 38z
m6898 -12 c-3 -3 -12 -4 -19 -1 -8 3 -5 6 6 6 11 1 17 -2 13 -5z m3038 -4 c3
-5 -1 -10 -9 -10 -9 0 -16 5 -16 10 0 6 4 10 9 10 6 0 13 -4 16 -10z m-40 -10
c3 -5 -1 -10 -9 -10 -9 0 -16 5 -16 10 0 6 4 10 9 10 6 0 13 -4 16 -10z m-40
-10 c3 -5 -1 -10 -9 -10 -9 0 -16 5 -16 10 0 6 4 10 9 10 6 0 13 -4 16 -10z
m-40 -10 c-3 -5 -11 -10 -16 -10 -6 0 -7 5 -4 10 3 6 11 10 16 10 6 0 7 -4 4
-10z m-45 -9 c0 -13 -54 -21 -65 -9 -7 8 -5 9 6 5 9 -3 22 -1 30 4 18 11 29
11 29 0z m-80 -21 c0 -5 -7 -10 -16 -10 -8 0 -12 5 -9 10 3 6 10 10 16 10 5 0
9 -4 9 -10z m-45 -9 c-10 -8 -137 -42 -152 -40 -11 1 128 47 147 48 8 1 10 -2
5 -8z m365 -1 c0 -5 -4 -10 -10 -10 -5 0 -10 5 -10 10 0 6 5 10 10 10 6 0 10
-4 10 -10z m-30 -10 c0 -5 -2 -10 -4 -10 -3 0 -8 5 -11 10 -3 6 -1 10 4 10 6
0 11 -4 11 -10z m-10220 -10 c-8 -5 -19 -10 -25 -10 -5 0 -3 5 5 10 8 5 20 10
25 10 6 0 3 -5 -5 -10z m2431 -107 c-61 -65 -170 -176 -243 -248 -73 -71 -103
-99 -68 -60 83 89 413 425 418 425 2 0 -46 -53 -107 -117z m7759 107 c0 -5 -2
-10 -4 -10 -3 0 -8 5 -11 10 -3 6 -1 10 4 10 6 0 11 -4 11 -10z m-10230 -14
c0 -2 -7 -7 -16 -10 -8 -3 -12 -2 -9 4 6 10 25 14 25 6z m10175 -6 c3 -5 1
-10 -4 -10 -6 0 -11 5 -11 10 0 6 2 10 4 10 3 0 8 -4 11 -10z m-25 -10 c0 -5
-4 -10 -10 -10 -5 0 -10 5 -10 10 0 6 5 10 10 10 6 0 10 -4 10 -10z m-470 -4
c0 -2 -7 -7 -16 -10 -8 -3 -12 -2 -9 4 6 10 25 14 25 6z m440 -6 c0 -5 -5 -10
-11 -10 -5 0 -7 5 -4 10 3 6 8 10 11 10 2 0 4 -4 4 -10z m-31 -13 c-12 -10
-152 -57 -157 -53 -3 3 1 8 9 10 8 3 43 16 79 29 55 21 85 27 69 14z m-504 -7
c3 -5 1 -10 -4 -10 -6 0 -11 5 -11 10 0 6 2 10 4 10 3 0 8 -4 11 -10z m-3115
-4 c0 -2 -7 -6 -15 -10 -8 -3 -15 -1 -15 4 0 6 7 10 15 10 8 0 15 -2 15 -4z
m-60 -16 c0 -5 -7 -7 -15 -4 -8 4 -15 8 -15 10 0 2 7 4 15 4 8 0 15 -4 15 -10z
m-60 -10 c-14 -4 -34 -8 -45 -8 -16 0 -15 2 5 8 14 4 34 8 45 8 16 0 15 -2 -5
-8z m3570 -19 c0 -5 -9 -11 -20 -14 -11 -3 -20 -1 -20 3 0 5 8 11 18 13 9 3
18 5 20 6 1 0 2 -3 2 -8z m-85 -31 c-3 -5 -11 -10 -16 -10 -6 0 -7 5 -4 10 3
6 11 10 16 10 6 0 7 -4 4 -10z m-605 -284 c0 -3 -4 -8 -10 -11 -5 -3 -10 -1
-10 4 0 6 5 11 10 11 6 0 10 -2 10 -4z m-7180 -111 c-24 -25 -46 -45 -49 -45
-3 0 15 20 39 45 24 25 46 45 49 45 3 0 -15 -20 -39 -45z m10260 -20 c0 -2
-15 -12 -32 -20 l-33 -16 25 20 c24 20 40 26 40 16z m-10328 -57 c-7 -7 -12
-8 -12 -2 0 14 12 26 19 19 2 -3 -1 -11 -7 -17z m10258 18 c0 -8 -113 -86
-124 -86 -5 0 19 20 55 44 70 49 69 48 69 42z m-15582 -51 c-3 -3 -9 2 -12 12
-6 14 -5 15 5 6 7 -7 10 -15 7 -18z m5292 0 c-7 -8 -16 -15 -21 -15 -5 0 -1 8
9 18 20 22 31 19 12 -3z m10119 -69 c-4 -3 -400 -265 -799 -528 -96 -63 -272
-178 -390 -255 -118 -77 -309 -202 -425 -278 -115 -76 -268 -176 -340 -223
-71 -47 -213 -140 -315 -207 -584 -384 -648 -425 -666 -425 -9 0 239 165 776
515 74 48 236 155 360 236 478 314 1080 708 1342 879 122 80 274 179 337 221
64 42 118 75 120 73 2 -2 2 -6 0 -8z m-26813 -18 c3 -4 -1 -5 -10 -4 -8 1 -18
5 -22 8 -3 4 1 5 10 4 8 -1 18 -5 22 -8z m20449 -257 c-6 -4 -44 -16 -85 -25
-41 -10 -83 -20 -92 -22 -10 -3 -18 -1 -18 4 0 5 42 18 93 29 111 25 114 26
102 14z m-14382 -98 c-8 -23 -33 -60 -33 -50 0 11 29 67 35 67 2 0 2 -8 -2
-17z m-44 -101 c-6 -18 -14 -32 -19 -32 -4 0 0 16 8 35 19 42 26 40 11 -3z
m2131 -266 c0 -2 -8 -10 -17 -17 -16 -13 -17 -12 -4 4 13 16 21 21 21 13z
m-3049 -63 c-12 -20 -14 -14 -5 12 4 9 9 14 11 11 3 -2 0 -13 -6 -23z m2969
23 c0 -2 -8 -10 -17 -17 -16 -13 -17 -12 -4 4 13 16 21 21 21 13z m-50 -30
c-8 -8 -26 -17 -40 -20 -19 -5 -17 -2 10 13 42 24 49 26 30 7z m12620 -14 c0
-4 -12 -8 -27 -9 -24 -1 -25 -1 -8 7 26 11 35 12 35 2z m-12690 -17 c0 -7 -83
-45 -88 -41 -2 3 13 14 34 24 41 21 54 25 54 17z m-100 -49 c0 -3 -4 -8 -10
-11 -5 -3 -10 -1 -10 4 0 6 5 11 10 11 6 0 10 -2 10 -4z m12750 -18 c0 -6 -3
-8 -7 -5 -3 4 -12 2 -20 -4 -8 -8 -13 -8 -13 -1 0 10 15 19 33 21 4 1 7 -4 7
-11z m-12799 -9 c-14 -5 -30 -13 -36 -17 -6 -4 -2 1 8 11 11 9 27 17 36 16 10
0 7 -4 -8 -10z m12749 -3 c0 -2 -7 -7 -16 -10 -8 -3 -12 -2 -9 4 6 10 25 14
25 6z m-65 -26 c3 -5 1 -10 -4 -10 -6 0 -11 5 -11 10 0 6 2 10 4 10 3 0 8 -4
11 -10z m-12745 -4 c0 -2 -7 -6 -15 -10 -8 -3 -15 -1 -15 4 0 6 7 10 15 10 8
0 15 -2 15 -4z m12720 -1 c0 -2 -9 -9 -19 -15 -14 -7 -22 -7 -27 2 -4 6 -3 8
4 4 6 -3 13 -2 17 4 6 10 25 14 25 5z m-12788 -25 c-51 -31 -175 -91 -179 -86
-5 4 187 105 202 106 6 0 -5 -9 -23 -20z m-227 -110 c-3 -5 -14 -10 -23 -9
-14 0 -13 2 3 9 27 11 27 11 20 0z m-45 -17 c0 -5 -11 -13 -25 -20 -14 -6 -25
-8 -25 -4 0 5 10 13 23 19 28 14 27 13 27 5z m-200 -97 c0 -2 -7 -7 -16 -10
-8 -3 -12 -2 -9 4 6 10 25 14 25 6z m11767 -808 c-2 -13 -4 -3 -4 22 0 25 2
35 4 23 2 -13 2 -33 0 -45z m-10 -90 c-3 -8 -6 -5 -6 6 -1 11 2 17 5 13 3 -3
4 -12 1 -19z m-10 -130 c-2 -13 -4 -3 -4 22 0 25 2 35 4 23 2 -13 2 -33 0 -45z
m2598 22 c-10 -11 -20 -18 -23 -15 -7 6 18 35 31 35 5 0 2 -9 -8 -20z m-2608
-117 c-2 -16 -4 -5 -4 22 0 28 2 40 4 28 2 -13 2 -35 0 -50z m2343 -23 c-8 -5
-19 -10 -25 -10 -5 0 -3 5 5 10 8 5 20 10 25 10 6 0 3 -5 -5 -10z m-835 -788
c-1254 -1248 -1712 -1702 -1721 -1702 -9 0 828 836 1855 1853 332 328 607 597
610 597 3 0 -332 -337 -744 -748z m-1530 568 c-11 -107 -13 -117 -9 -45 6 115
18 226 21 200 2 -11 -4 -81 -12 -155z m-11216 144 c2 -2 -15 -4 -38 -4 -26 0
-40 4 -36 10 6 9 63 5 74 -6z m489 -71 c-10 -2 -28 -2 -40 0 -13 2 -5 4 17 4
22 1 32 -1 23 -4z m125 -10 c-7 -2 -19 -2 -25 0 -7 3 -2 5 12 5 14 0 19 -2 13
-5z m390 -40 c-7 -2 -19 -2 -25 0 -7 3 -2 5 12 5 14 0 19 -2 13 -5z m-8948
-133 c3 -6 -1 -7 -9 -4 -18 7 -21 14 -7 14 6 0 13 -4 16 -10z m19142 -107 c-2
-16 -4 -3 -4 27 0 30 2 43 4 28 2 -16 2 -40 0 -55z m-19066 50 c13 -16 12 -17
-3 -4 -10 7 -18 15 -18 17 0 8 8 3 21 -13z m19054 -190 c-4 -53 -12 -108 -16
-122 -8 -22 -8 -21 -4 9 2 19 7 74 11 123 3 48 9 87 11 87 3 0 2 -44 -2 -97z
m11663 32 c-2 -3 -74 -32 -159 -64 -85 -33 -210 -82 -279 -109 -69 -27 -246
-96 -395 -155 -148 -58 -333 -130 -410 -160 -161 -63 -1437 -559 -1595 -619
-58 -22 -110 -47 -116 -54 -7 -8 -17 -47 -23 -87 -10 -68 -73 -427 -121 -692
-47 -259 -81 -452 -87 -492 -3 -24 -10 -43 -15 -43 -6 0 -7 7 -4 16 4 9 11 48
16 86 11 78 28 178 64 388 55 324 77 449 90 520 8 41 22 118 31 170 9 52 19
102 22 110 4 8 5 22 4 31 -1 9 4 19 11 22 99 39 2105 811 2218 853 52 20 122
46 155 59 258 102 578 224 589 224 5 1 7 -1 4 -4z m-30109 -269 c76 -51 335
-237 577 -411 241 -175 462 -334 489 -353 68 -48 1048 -755 1265 -912 96 -70
427 -309 735 -530 308 -222 670 -483 805 -580 374 -269 733 -530 960 -696 244
-179 416 -304 1055 -763 264 -189 521 -374 570 -411 50 -37 293 -213 540 -391
752 -543 1065 -772 1061 -777 -3 -2 -11 1 -18 7 -7 6 -164 118 -348 249 -184
131 -519 371 -745 533 -225 163 -498 358 -605 435 -107 77 -220 158 -250 180
-89 66 -763 552 -905 653 -407 289 -1231 881 -1590 1142 -44 32 -210 152 -370
267 -361 259 -1601 1154 -1950 1407 -143 104 -276 200 -297 214 -126 89 -1005
734 -1081 793 -84 65 -40 42 102 -56z m18428 47 c-3 -10 -5 -4 -5 12 0 17 2
24 5 18 2 -7 2 -21 0 -30z m-10 -110 c-2 -16 -4 -3 -4 27 0 30 2 43 4 28 2
-16 2 -40 0 -55z m-4347 45 c0 -14 -37 -397 -45 -468 -3 -25 -12 -115 -20
-200 -38 -392 -47 -482 -90 -899 -40 -400 -55 -512 -55 -425 0 30 57 643 136
1462 25 261 44 481 42 489 -2 10 -110 -75 -318 -254 -173 -148 -513 -437 -755
-642 -242 -206 -458 -390 -481 -410 -22 -20 -86 -74 -141 -120 l-101 -84 50
-141 c162 -457 247 -709 237 -699 -5 5 -25 52 -43 104 -19 52 -86 238 -149
414 -64 176 -112 325 -109 331 4 7 25 27 48 46 35 28 427 364 594 508 30 26
154 132 275 235 121 103 276 236 345 295 69 58 221 188 338 288 200 171 242
200 242 170z m7315 -48 c-3 -5 -16 -15 -28 -21 -19 -9 -19 -8 3 10 28 23 34
26 25 11z m-13808 -26 c-5 -5 -57 13 -57 20 0 3 14 0 31 -6 16 -6 28 -12 26
-14z m10830 -66 c-2 -13 -4 -3 -4 22 0 25 2 35 4 23 2 -13 2 -33 0 -45z m2893
37 c0 -2 -20 -18 -45 -35 -25 -17 -45 -29 -45 -26 0 4 80 64 88 66 1 0 2 -2 2
-5z m-105 -74 c-6 -4 -273 -183 -595 -396 -322 -214 -637 -423 -700 -465 -140
-93 -140 -93 -140 -86 0 5 726 490 1279 854 140 92 182 118 156 93z m-2798
-43 c-3 -7 -5 -2 -5 12 0 14 2 19 5 13 2 -7 2 -19 0 -25z m-10 -145 c-2 -16
-4 -3 -4 27 0 30 2 43 4 28 2 -16 2 -40 0 -55z m-10 -75 c-3 -8 -6 -5 -6 6 -1
11 2 17 5 13 3 -3 4 -12 1 -19z m-21653 -274 c3 -8 2 -12 -4 -9 -6 3 -10 10
-10 16 0 14 7 11 14 -7z m11876 -64 c8 -5 11 -10 5 -10 -5 0 -17 5 -25 10 -8
5 -10 10 -5 10 6 0 17 -5 25 -10z m-11826 -26 c3 -8 2 -12 -4 -9 -6 3 -10 10
-10 16 0 14 7 11 14 -7z m46 -84 c6 -11 8 -20 6 -20 -3 0 -10 9 -16 20 -6 11
-8 20 -6 20 3 0 10 -9 16 -20z m51 -92 c10 -21 17 -38 15 -38 -5 0 -56 90 -56
99 0 8 17 -17 41 -61z m10644 -38 c3 -6 -1 -7 -9 -4 -18 7 -21 14 -7 14 6 0
13 -4 16 -10z m101 -79 c6 -5 30 -21 55 -36 24 -16 134 -93 244 -173 110 -80
315 -229 456 -331 396 -288 394 -287 1094 -796 363 -264 707 -515 765 -558 58
-42 179 -131 270 -197 299 -218 588 -430 730 -534 25 -18 73 -54 108 -79 34
-25 58 -48 52 -52 -5 -3 -10 -1 -10 4 0 6 -4 11 -10 11 -8 0 -125 84 -985 709
-484 351 -1740 1267 -1840 1341 -49 36 -261 192 -470 345 -209 153 -382 281
-385 284 -3 3 -30 23 -61 44 -31 21 -65 48 -75 60 -18 20 -3 10 62 -42z
m-10681 -1 c14 -27 23 -50 20 -50 -2 0 -16 23 -30 50 -14 28 -23 50 -20 50 2
0 16 -22 30 -50z m132 -240 c115 -211 115 -210 109 -210 -4 0 -75 126 -176
315 -24 44 -39 76 -33 70 6 -5 51 -84 100 -175z m27503 80 c-8 -5 -19 -10 -25
-10 -5 0 -3 5 5 10 8 5 20 10 25 10 6 0 3 -5 -5 -10z m95 -52 c3 -18 54 -496
115 -1063 99 -930 130 -1225 215 -2035 29 -274 74 -697 105 -985 23 -209 38
-353 45 -430 4 -43 3 -46 -5 -20 -8 25 -112 960 -306 2755 -19 179 -48 444
-64 590 -16 146 -50 461 -75 700 -25 239 -48 445 -51 458 -4 18 -51 -58 -216
-345 -344 -601 -365 -638 -513 -893 -174 -300 -111 -191 -471 -820 -168 -294
-381 -665 -472 -824 -91 -159 -165 -294 -165 -300 0 -6 136 -285 302 -619 166
-335 302 -614 304 -620 1 -7 5 -14 9 -17 3 -3 8 -12 10 -20 2 -8 9 -21 16 -28
7 -8 10 -18 7 -23 -4 -5 -2 -9 3 -9 10 0 38 -60 34 -72 -1 -5 3 -8 8 -8 6 0
10 -9 10 -20 0 -11 4 -20 9 -20 8 0 33 -50 33 -67 0 -4 9 -19 19 -32 11 -13
19 -29 19 -36 0 -16 29 -73 41 -80 5 -4 7 -10 4 -15 -3 -4 2 -13 10 -20 8 -7
12 -16 9 -21 -3 -5 0 -9 5 -9 6 0 11 -9 11 -20 0 -11 5 -20 10 -20 6 0 10 -9
10 -19 0 -11 5 -21 11 -23 5 -2 11 -11 13 -20 1 -10 5 -21 9 -24 4 -4 7 -14 6
-23 0 -12 -3 -10 -8 4 -5 11 -9 25 -10 30 -2 6 -8 17 -16 25 -21 25 -75 137
-68 144 4 3 2 6 -4 6 -9 0 -57 96 -55 110 0 3 -5 12 -13 20 -12 14 -775 1546
-775 1556 0 3 68 123 152 267 83 144 168 291 188 327 90 158 450 782 551 957
49 83 98 169 110 190 12 21 64 112 117 203 52 91 109 190 126 221 170 308 614
1068 623 1069 7 0 15 -15 18 -32z m-315 -27 c-8 -5 -26 -11 -40 -15 -21 -5
-20 -3 5 9 32 15 60 20 35 6z m-410 -152 c-58 -22 -152 -57 -210 -78 -58 -21
-168 -62 -245 -91 -77 -28 -176 -64 -220 -80 -44 -16 -154 -57 -245 -90 -243
-91 -302 -111 -306 -107 -7 6 35 23 196 81 85 30 236 85 335 121 99 37 216 79
260 95 140 50 297 107 405 148 58 23 112 41 120 41 8 0 -32 -18 -90 -40z
m-26726 -116 c15 -25 25 -48 23 -50 -2 -2 -16 19 -31 47 -15 27 -25 50 -22 50
2 0 16 -21 30 -47z m106 -195 c40 -73 75 -136 77 -140 2 -5 2 -8 -1 -8 -5 0
-35 53 -111 193 -25 48 -44 87 -42 87 3 0 38 -60 77 -132z m20890 68 c0 -2 -8
-10 -17 -17 -16 -13 -17 -12 -4 4 13 16 21 21 21 13z m-16032 -41 c-3 -3 -9 2
-12 12 -6 14 -5 15 5 6 7 -7 10 -15 7 -18z m15952 -39 c0 -2 -8 -10 -17 -17
-16 -13 -17 -12 -4 4 13 16 21 21 21 13z m-4225 -126 c-4 -17 -9 -29 -12 -26
-3 2 -2 19 2 36 4 17 9 29 12 26 3 -2 2 -19 -2 -36z m-11475 0 c0 -5 -5 -10
-11 -10 -5 0 -7 5 -4 10 3 6 8 10 11 10 2 0 4 -4 4 -10z m20231 -21 c-24 -11
-49 -18 -55 -16 -6 2 9 11 34 20 62 22 74 20 21 -4z m176 15 c-3 -3 -12 -4
-19 -1 -8 3 -5 6 6 6 11 1 17 -2 13 -5z m-25407 -54 c11 -22 19 -40 16 -40 -4
0 -46 68 -46 76 0 13 12 -1 30 -36z m25095 -9 c-6 -5 -23 -12 -40 -16 l-30 -6
30 15 c35 17 53 20 40 7z m-19918 -56 c37 -25 77 -52 88 -60 10 -8 23 -15 28
-15 4 0 5 -4 2 -10 -3 -5 2 -10 12 -11 13 0 14 -2 4 -6 -8 -3 -19 1 -25 9 -6
8 -47 38 -91 68 -84 55 -103 70 -93 70 4 0 37 -20 75 -45z m11250 -12 c-3 -10
-5 -2 -5 17 0 19 2 27 5 18 2 -10 2 -26 0 -35z m40 25 c-3 -8 -6 -5 -6 6 -1
11 2 17 5 13 3 -3 4 -12 1 -19z m8533 7 c-14 -8 -32 -14 -40 -14 -8 0 -1 6 15
14 40 18 57 18 25 0z m-24936 -74 c20 -35 35 -66 33 -68 -4 -3 -65 105 -76
132 -9 23 10 -4 43 -64z m24866 50 c-8 -5 -89 -36 -180 -69 -217 -79 -671
-247 -890 -329 -96 -36 -218 -80 -270 -98 -52 -18 -151 -54 -220 -80 -69 -25
-231 -85 -360 -131 -129 -47 -262 -96 -295 -109 -33 -13 -87 -32 -120 -43 -33
-12 -98 -35 -145 -52 -47 -18 -96 -36 -110 -40 -21 -7 -137 -49 -294 -107 -21
-7 -40 -12 -42 -10 -2 2 110 46 248 97 139 51 492 180 783 287 292 107 607
223 700 258 94 35 215 79 270 98 55 18 201 71 325 117 526 195 645 237 600
211z m-8473 -38 c-3 -10 -5 -4 -5 12 0 17 2 24 5 18 2 -7 2 -21 0 -30z m-38
-112 c-5 -46 -12 -87 -15 -90 -6 -6 3 115 12 158 10 46 11 15 3 -68z m32 62
c-12 -20 -14 -14 -5 12 4 9 9 14 11 11 3 -2 0 -13 -6 -23z m-7390 -75 c18 -29
32 -59 32 -65 0 -7 3 -13 7 -13 7 0 32 -47 36 -69 1 -8 7 -17 13 -20 5 -4 15
-18 20 -31 6 -14 19 -38 29 -55 11 -16 40 -70 67 -120 26 -49 51 -94 55 -100
4 -5 33 -59 65 -120 32 -60 69 -128 82 -150 12 -22 39 -72 59 -112 21 -40 41
-70 45 -67 4 2 11 -1 15 -7 4 -8 3 -9 -4 -5 -17 10 -15 -9 3 -24 8 -7 13 -16
10 -20 -3 -5 -1 -11 5 -15 12 -7 53 -83 56 -104 2 -7 8 -19 14 -25 9 -8 11 -5
6 14 -5 24 -5 23 7 -2 8 -17 50 -52 107 -89 52 -34 86 -58 75 -54 -11 4 -33
12 -49 17 -15 6 -48 21 -72 34 l-44 23 57 -107 c31 -59 60 -111 64 -117 4 -5
29 -50 55 -100 26 -49 62 -118 81 -153 18 -35 44 -82 57 -105 13 -23 49 -91
81 -152 31 -60 62 -114 68 -120 7 -5 12 -14 12 -20 0 -23 107 -205 120 -205 8
0 15 -5 15 -11 0 -5 -4 -7 -10 -4 -5 3 -10 3 -10 0 0 -14 55 -105 63 -105 5 0
6 -4 2 -10 -3 -5 3 -18 15 -30 11 -11 17 -20 14 -20 -8 0 46 -93 58 -101 6 -3
9 -9 9 -13 -3 -19 0 -27 7 -22 4 2 9 -4 9 -15 2 -28 22 -49 44 -49 11 0 19 -4
19 -10 0 -5 -7 -10 -16 -10 -8 0 -12 -5 -9 -10 4 -6 11 -7 17 -4 6 4 8 2 4 -4
-8 -13 71 -162 87 -162 5 0 8 -3 4 -6 -5 -5 109 -236 133 -269 4 -5 30 -53 58
-105 178 -337 231 -443 225 -453 -3 -5 -2 -7 4 -4 11 7 36 -40 28 -53 -3 -5
13 -41 35 -82 39 -71 54 -112 26 -73 -26 38 -395 710 -591 1075 -43 80 -81
147 -86 148 -5 2 -9 9 -9 16 0 11 -46 98 -307 586 -67 124 -169 315 -228 425
-267 499 -257 481 -302 510 -44 27 -69 53 -42 43 60 -23 61 -25 -115 304 -211
396 -296 556 -298 565 -1 5 -11 24 -22 43 -11 19 -19 44 -18 55 2 17 1 18 -8
5 -10 -13 -11 -12 -6 3 3 9 1 17 -4 17 -8 0 -42 54 -39 62 1 4 -20 59 -27 69
-3 5 -3 9 0 9 2 0 19 -24 37 -52z m20384 -178 c-19 -107 -35 -198 -35 -202 0
-5 -5 -8 -11 -8 -5 0 -8 4 -4 9 3 6 19 90 35 189 28 169 38 217 46 210 1 -2
-13 -91 -31 -198z m-29311 164 c3 -8 2 -12 -4 -9 -6 3 -10 10 -10 16 0 14 7
11 14 -7z m16303 -26 c-3 -7 -5 -2 -5 12 0 14 2 19 5 13 2 -7 2 -19 0 -25z
m-16262 -48 c9 -16 13 -30 11 -30 -3 0 -12 14 -21 30 -9 17 -13 30 -11 30 3 0
12 -13 21 -30z m14575 -25 c0 -5 -5 -3 -10 5 -5 8 -10 20 -10 25 0 6 5 3 10
-5 5 -8 10 -19 10 -25z m-14546 -31 c3 -8 2 -12 -4 -9 -6 3 -10 10 -10 16 0
14 7 11 14 -7z m31 -54 c9 -16 13 -30 11 -30 -3 0 -12 14 -21 30 -9 17 -13 30
-11 30 3 0 12 -13 21 -30z m32215 0 c-12 -16 -24 -30 -26 -30 -3 0 4 14 16 30
12 17 24 30 26 30 3 0 -4 -13 -16 -30z m-17325 -21 c9 -17 15 -34 13 -39 -2
-5 -11 9 -20 30 -20 47 -15 53 7 9z m3896 -40 c23 -27 39 -49 36 -49 -2 0 -28
28 -58 63 -29 34 -46 56 -36 48 10 -8 36 -36 58 -62z m-18743 -24 c-3 -3 -9 2
-12 12 -6 14 -5 15 5 6 7 -7 10 -15 7 -18z m23680 16 c9 -6 5 -8 -15 -8 -15 0
-75 -19 -132 -41 -58 -23 -107 -39 -110 -36 -3 2 4 7 14 10 11 3 63 22 115 44
106 42 109 43 128 31z m-8794 -61 l7 -25 -15 25 c-9 14 -15 32 -15 40 0 13 1
13 8 0 5 -8 12 -26 15 -40z m8760 5 c-15 -20 -29 -33 -32 -30 -5 5 46 65 55
65 2 0 -8 -16 -23 -35z m-4834 -20 c14 -19 14 -19 -2 -6 -10 7 -18 18 -18 24
0 6 1 8 3 6 1 -2 9 -13 17 -24z m79 -88 c-2 -2 -17 12 -33 32 l-30 36 34 -32
c19 -18 32 -34 29 -36z m4476 53 c-27 -12 -43 -12 -25 0 8 5 22 9 30 9 10 0 8
-3 -5 -9z m240 2 c-10 -6 -145 -168 -239 -285 -21 -26 -41 -46 -43 -43 -7 7
270 336 282 336 7 0 7 -3 0 -8z m-23530 -42 c9 -16 13 -30 11 -30 -3 0 -12 14
-21 30 -9 17 -13 30 -11 30 3 0 12 -13 21 -30z m23210 10 c-3 -5 -12 -10 -18
-10 -7 0 -6 4 3 10 19 12 23 12 15 0z m-64 -25 c-18 -8 -36 -15 -40 -15 -13 1
45 29 59 29 8 0 0 -6 -19 -14z m-4256 -82 c27 -32 39 -49 26 -38 -24 21 -86
95 -79 95 2 0 26 -26 53 -57z m-18841 11 c3 -8 2 -12 -4 -9 -6 3 -10 10 -10
16 0 14 7 11 14 -7z m5868 -92 c18 -16 53 -41 78 -56 65 -39 137 -90 168 -118
15 -13 30 -24 35 -25 19 -5 135 -88 131 -95 -5 -7 0 -9 21 -8 3 0 11 -4 18
-10 6 -6 156 -110 332 -232 576 -399 690 -480 687 -490 -1 -5 2 -7 7 -4 12 8
427 -283 423 -296 -1 -5 2 -7 7 -3 6 3 70 -37 143 -88 73 -52 313 -219 533
-372 719 -501 810 -566 807 -576 -1 -6 2 -8 7 -5 5 4 82 -45 170 -106 88 -62
209 -147 267 -188 59 -41 141 -99 183 -128 42 -29 75 -58 73 -63 -1 -6 2 -8 7
-4 11 6 111 -61 111 -75 0 -4 9 -10 20 -13 11 -3 20 -10 20 -16 0 -11 -70 34
-272 176 -54 37 -123 86 -155 108 -206 143 -502 348 -578 401 -49 35 -121 85
-160 112 -38 26 -160 111 -270 188 -110 77 -415 290 -677 473 -268 187 -475
338 -471 344 3 6 1 7 -5 3 -6 -4 -77 39 -159 97 -81 57 -427 299 -768 537
-341 238 -625 439 -631 446 -6 8 -14 11 -17 7 -4 -3 -9 2 -13 11 -3 9 -11 16
-18 16 -6 0 -25 12 -42 28 -16 15 -34 28 -39 29 -10 2 -20 23 -11 23 3 0 20
-13 38 -28z m-5812 -12 c6 -11 8 -20 6 -20 -3 0 -10 9 -16 20 -6 11 -8 20 -6
20 3 0 10 -9 16 -20z m7660 -95 c19 -22 8 -25 -12 -3 -10 10 -14 18 -9 18 5 0
14 -7 21 -15z m-7596 -21 c3 -8 2 -12 -4 -9 -6 3 -10 10 -10 16 0 14 7 11 14
-7z m23050 -16 c-15 -25 -122 -154 -140 -168 -10 -8 -4 3 15 25 18 22 54 66
79 98 42 53 63 73 46 45z m-15361 -60 c32 -35 62 -67 68 -73 47 -49 958 -1007
1078 -1135 86 -90 235 -248 331 -350 97 -102 288 -304 425 -450 137 -146 315
-335 395 -420 200 -212 234 -250 223 -250 -4 0 -17 10 -28 22 -10 12 -113 122
-229 243 -116 121 -247 258 -291 305 -45 47 -130 137 -190 200 -232 243 -1093
1156 -1523 1615 -134 143 -264 281 -289 308 -25 26 -42 47 -37 47 5 0 35 -28
67 -62z m1615 -293 c41 -77 83 -151 92 -165 22 -32 84 -168 72 -155 -6 6 -22
33 -37 60 -15 28 -35 58 -43 68 -9 10 -17 23 -18 30 -2 11 -103 205 -198 379
-20 37 -36 71 -36 75 0 10 68 -108 168 -292z m12142 170 c-14 -8 -32 -14 -40
-14 -8 0 -1 7 15 14 39 18 57 18 25 0z m-110 -40 c-30 -13 -62 -24 -70 -24
-19 0 90 47 110 48 8 0 -10 -11 -40 -24z m1510 -25 c-11 -16 -26 -33 -32 -36
-7 -4 1 9 16 29 34 44 46 50 16 7z m-1610 -9 c-8 -5 -26 -11 -40 -15 -21 -5
-20 -3 5 9 32 15 60 20 35 6z m-120 -46 c-14 -8 -32 -14 -40 -14 -8 0 -1 6 15
14 40 18 57 18 25 0z m1663 -30 c-15 -19 -32 -35 -37 -35 -6 0 5 16 24 35 43
45 49 45 13 0z m-1803 -19 c0 -6 -93 -37 -97 -32 -2 2 15 11 39 19 47 17 58
19 58 13z m1724 -73 c-113 -139 -244 -294 -244 -289 0 8 271 336 278 336 2 0
-13 -21 -34 -47z m-8909 7 c10 -11 16 -20 13 -20 -3 0 -13 9 -23 20 -10 11
-16 20 -13 20 3 0 13 -9 23 -20z m65 -78 c0 -3 -9 3 -20 13 -11 10 -20 23 -20
28 0 6 9 0 20 -13 11 -13 20 -25 20 -28z m6820 33 c-14 -8 -32 -14 -40 -14 -8
0 -1 6 15 14 40 18 57 18 25 0z m-6755 -95 c27 -27 47 -50 44 -50 -3 0 -27 23
-54 50 -27 28 -47 50 -44 50 3 0 27 -22 54 -50z m6550 21 c-6 -5 -21 -11 -35
-15 -21 -5 -20 -3 5 9 35 17 42 18 30 6z m-10950 -221 c19 -38 33 -70 30 -70
-2 0 -19 28 -37 63 -41 78 -41 77 -34 77 3 0 22 -31 41 -70z m12885 -23 c0 -2
-10 -12 -22 -23 l-23 -19 19 23 c18 21 26 27 26 19z m-8940 -117 c0 -5 7 -10
15 -10 9 0 18 -7 21 -15 4 -8 10 -13 14 -10 5 3 12 0 17 -8 4 -7 22 -21 38
-31 79 -49 272 -196 258 -196 -5 0 -19 9 -31 20 -12 11 -24 20 -26 20 -3 0
-41 25 -83 56 -43 31 -97 70 -120 87 -24 17 -43 35 -43 40 0 4 -3 6 -8 3 -4
-2 -23 9 -42 25 -19 15 -29 29 -22 29 6 0 12 -4 12 -10z m496 -361 c3 -6 -5
-3 -20 6 -14 10 -26 19 -26 22 0 7 39 -17 46 -28z m10850 -298 c-3 -5 -17 -8
-31 -8 -13 0 -22 3 -19 8 3 5 16 9 30 9 14 0 23 -4 20 -9z m-77 -5 c-12 -10
-60 -16 -54 -6 3 5 18 10 32 10 15 0 24 -2 22 -4z m-101 -13 c-10 -2 -28 -2
-40 0 -13 2 -5 4 17 4 22 1 32 -1 23 -4z m-128 -13 c0 -5 -2 -10 -4 -10 -3 0
-8 5 -11 10 -3 6 -1 10 4 10 6 0 11 -4 11 -10z m53 3 c-7 -2 -21 -2 -30 0 -10
3 -4 5 12 5 17 0 24 -2 18 -5z m-126 -9 c-3 -3 -12 -4 -19 -1 -8 3 -5 6 6 6
11 1 17 -2 13 -5z m-113 -14 c-12 -4 -63 -11 -115 -15 -52 -4 -103 -9 -114
-12 -11 -3 -16 -2 -12 3 8 8 166 30 232 32 26 1 27 0 9 -8z m-286 -25 c-10
-11 -48 -14 -48 -4 0 5 12 9 27 9 14 0 24 -2 21 -5z m-103 -15 c-11 -5 -164
-23 -340 -40 -176 -17 -363 -35 -415 -41 -100 -10 -207 -21 -380 -39 -58 -6
-166 -17 -240 -25 -74 -8 -166 -18 -205 -21 -38 -4 -72 -9 -75 -11 -4 -4 239
3 440 12 36 2 142 6 235 9 94 4 204 9 245 12 41 3 111 7 155 9 238 11 320 17
327 21 4 3 8 0 8 -5 0 -6 -21 -12 -47 -13 -73 -2 -174 -13 -223 -24 -14 -4
-41 -8 -60 -10 -57 -5 -143 -16 -165 -20 -11 -2 -47 -6 -80 -9 -33 -3 -86 -9
-117 -14 -38 -5 -61 -4 -69 3 -9 8 -10 8 -5 -1 4 -8 -7 -14 -36 -18 -163 -22
-388 -55 -413 -60 -16 -3 -43 -7 -60 -10 -16 -3 -41 -7 -55 -10 -14 -3 -74
-12 -135 -20 -60 -8 -135 -20 -165 -25 -128 -22 -245 -40 -266 -40 -16 0 -22
-4 -18 -15 5 -11 0 -13 -24 -6 -32 10 -53 8 -207 -14 -107 -16 -172 -24 -192
-25 -7 0 -13 -7 -13 -15 0 -17 -16 -20 -25 -5 -4 6 -33 7 -73 4 -37 -3 -86 -7
-109 -9 -22 -1 -45 -5 -50 -8 -4 -3 -62 -8 -128 -12 -66 -4 -136 -9 -155 -11
-19 -2 -154 -6 -300 -8 -146 -3 -321 -7 -390 -11 -69 -3 -244 -8 -390 -10
-146 -3 -312 -7 -370 -10 -409 -20 -659 -34 -730 -40 -57 -5 -127 -9 -420 -25
-96 -5 -211 -12 -255 -14 -79 -5 -80 -5 -20 5 211 33 701 94 1280 159 193 22
415 49 495 60 226 33 422 59 580 75 80 9 188 22 240 31 127 19 289 40 435 55
66 7 123 17 127 23 4 6 12 5 22 -3 11 -9 45 -11 133 -6 65 4 142 7 171 8 46 1
53 3 49 18 -4 15 -1 16 22 7 14 -5 58 -9 96 -9 68 2 92 3 255 15 41 4 111 9
155 11 91 6 260 20 415 35 540 52 1139 110 1315 129 197 22 250 24 220 11z
m6971 -107 c-8 -16 -22 -37 -31 -48 -16 -19 -17 -19 -3 5 8 14 20 35 27 48 6
12 14 22 17 22 2 0 -2 -12 -10 -27z m-7129 -9 c-3 -3 -12 -4 -19 -1 -8 3 -5 6
6 6 11 1 17 -2 13 -5z m7076 -79 c-3 -9 -8 -14 -10 -11 -3 3 -2 9 2 15 9 16
15 13 8 -4z m-6162 -12 c13 -16 12 -17 -3 -5 -18 14 -44 13 -233 -14 -27 -4
-46 -3 -42 2 8 9 156 31 223 33 29 1 46 -4 55 -16z m-296 -22 c-15 -13 -115
-24 -115 -12 0 5 19 12 43 14 23 2 51 4 62 5 11 1 15 -2 10 -7z m339 -58 c14
-29 24 -53 21 -53 -5 0 -55 95 -55 106 0 12 6 2 34 -53z m-479 37 c-11 -4 -60
-13 -110 -19 -96 -11 -495 -63 -633 -82 -46 -6 -86 -9 -89 -6 -9 9 22 14 362
57 176 22 343 45 370 49 69 12 127 13 100 1z m-860 -110 c4 -6 -9 -11 -32 -11
-21 -1 -47 -3 -58 -4 -70 -11 -247 -35 -285 -39 -59 -7 -198 -25 -232 -31 -16
-2 -28 -1 -28 3 0 6 336 54 475 69 17 1 53 7 80 12 70 12 73 12 80 1z m1464
-177 c50 -101 89 -183 86 -183 -5 0 -185 356 -185 367 0 12 8 -3 99 -184z
m-2136 87 c-12 -5 -57 -11 -100 -14 l-78 -5 70 10 c39 5 75 11 80 13 6 3 19 4
30 5 18 0 18 -1 -2 -9z m-247 -30 c-16 -5 -61 -11 -100 -14 l-71 -5 80 13 c95
16 132 18 91 6z m61 4 c-3 -3 -12 -4 -19 -1 -8 3 -5 6 6 6 11 1 17 -2 13 -5z
m-192 -124 c21 -22 37 -40 34 -40 -3 0 -23 18 -44 40 -21 22 -37 40 -34 40 3
0 23 -18 44 -40z m66 -57 c13 -16 12 -17 -3 -4 -17 13 -22 21 -14 21 2 0 10
-8 17 -17z m-21127 -9 c3 -8 2 -12 -4 -9 -6 3 -10 10 -10 16 0 14 7 11 14 -7z
m21171 -34 c10 -11 16 -20 13 -20 -3 0 -13 9 -23 20 -10 11 -16 20 -13 20 3 0
13 -9 23 -20z m56 -46 l24 -27 -27 18 c-16 9 -28 21 -28 26 0 14 5 11 31 -17z
m54 -54 c10 -11 16 -20 13 -20 -3 0 -13 9 -23 20 -10 11 -16 20 -13 20 3 0 13
-9 23 -20z m2445 -45 c0 -5 -5 -3 -10 5 -5 8 -10 20 -10 25 0 6 5 3 10 -5 5
-8 10 -19 10 -25z m-2270 -112 c0 -8 -92 72 -125 108 -16 18 5 2 48 -35 42
-38 77 -71 77 -73z m2349 -48 c0 -5 -15 19 -34 55 -19 36 -34 70 -34 75 0 6
15 -19 34 -55 19 -36 34 -69 34 -75z m-2325 29 c3 -8 2 -12 -4 -9 -6 3 -10 10
-10 16 0 14 7 11 14 -7z m166 -152 c0 -6 -26 15 -78 63 -24 22 -48 42 -53 43
-5 2 -9 8 -9 14 0 5 32 -18 70 -53 39 -34 70 -64 70 -67z m-21421 48 c11 -24
11 -24 -3 -6 -9 11 -16 24 -16 30 0 12 5 7 19 -24z m8751 -50 c0 -15 -5 -12
-26 11 -19 22 -19 22 4 10 12 -6 22 -16 22 -21z m12716 -32 c11 -13 51 -50 89
-83 60 -53 112 -100 216 -195 15 -14 49 -44 76 -66 95 -83 103 -90 103 -99 0
-6 -3 -6 -8 0 -4 6 -37 36 -75 68 -37 31 -136 118 -219 194 -84 76 -168 153
-187 170 -20 18 -31 33 -25 33 6 0 19 -10 30 -22z m-21418 -13 c-3 -3 -9 2
-12 12 -6 14 -5 15 5 6 7 -7 10 -15 7 -18z m8472 -20 c4 3 15 -8 24 -23 l17
-27 -20 23 c-11 13 -23 22 -28 22 -4 -1 -8 3 -9 10 -2 6 -1 7 3 0 2 -5 8 -8
13 -5z m150 -41 c0 -9 -37 15 -51 33 -10 12 -5 11 19 -6 17 -12 32 -24 32 -27z
m-60 -19 c21 -15 28 -25 18 -25 -9 0 -19 7 -22 16 -3 8 -10 13 -15 10 -5 -3
-11 1 -15 9 -7 20 -6 19 34 -10z m-13033 -1 c-3 -3 -12 -4 -19 -1 -8 3 -5 6 6
6 11 1 17 -2 13 -5z m40 -10 c-3 -3 -12 -4 -19 -1 -8 3 -5 6 6 6 11 1 17 -2
13 -5z m30083 -40 c0 -14 -4 -23 -10 -19 -5 3 -10 15 -10 26 0 10 5 19 10 19
6 0 10 -12 10 -26z m-29957 9 c-7 -2 -19 -2 -25 0 -7 3 -2 5 12 5 14 0 19 -2
13 -5z m4381 -9 c3 -8 2 -12 -4 -9 -6 3 -10 10 -10 16 0 14 7 11 14 -7z
m-4314 -4 c20 -6 21 -8 5 -8 -11 0 -29 3 -40 8 -25 11 1 11 35 0z m75 -20 l20
-9 -20 0 c-11 0 -27 4 -35 9 -13 9 -13 10 0 9 8 0 24 -4 35 -9z m812 -200
c422 -105 829 -206 903 -225 74 -19 228 -58 343 -86 114 -29 205 -54 203 -56
-5 -5 -128 25 -1406 343 -454 113 -827 208 -829 210 -10 10 60 -7 786 -186z
m3473 140 c6 -11 8 -20 6 -20 -3 0 -10 9 -16 20 -6 11 -8 20 -6 20 3 0 10 -9
16 -20z m25540 -18 c0 -21 -2 -24 -10 -12 -13 20 -13 53 0 45 6 -3 10 -18 10
-33z m-25492 -77 c-3 -3 -9 2 -12 12 -6 14 -5 15 5 6 7 -7 10 -15 7 -18z
m25502 -18 c0 -24 -3 -28 -10 -17 -13 20 -13 63 0 55 6 -3 10 -21 10 -38z
m-16569 -74 c13 -16 12 -17 -3 -4 -10 7 -18 15 -18 17 0 8 8 3 21 -13z m16576
-20 c-3 -10 -5 -4 -5 12 0 17 2 24 5 18 2 -7 2 -21 0 -30z m-3532 -221 c32
-41 29 -38 -95 67 -47 40 -98 89 -115 109 -18 22 11 2 75 -52 58 -48 118 -104
135 -124z m3542 126 c-3 -7 -5 -2 -5 12 0 14 2 19 5 13 2 -7 2 -19 0 -25z m0
-80 c-3 -8 -6 -5 -6 6 -1 11 2 17 5 13 3 -3 4 -12 1 -19z m-1403 -138 c19 -39
32 -70 28 -70 -4 0 -24 34 -45 76 -21 42 -33 73 -28 70 5 -4 26 -38 45 -76z
m1426 42 c0 -7 -4 -10 -10 -7 -5 3 -10 16 -10 28 0 18 2 19 10 7 5 -8 10 -21
10 -28z m-17353 12 c-3 -3 -12 -4 -19 -1 -8 3 -5 6 6 6 11 1 17 -2 13 -5z
m-172 -14 c-22 -4 -116 -15 -210 -25 -93 -9 -183 -18 -200 -20 -77 -8 -156
-17 -350 -36 -279 -27 -316 -40 -54 -19 263 21 676 50 718 50 60 0 49 -7 -24
-14 -33 -4 -73 -9 -90 -11 -35 -5 -45 -6 -345 -40 -124 -14 -301 -35 -395 -45
-93 -11 -199 -23 -235 -26 -36 -3 -103 -12 -150 -19 -47 -8 -119 -16 -160 -19
-41 -3 -93 -9 -115 -12 -22 -4 -51 -8 -65 -9 -61 -6 -146 -16 -160 -20 -8 -2
-69 -11 -135 -19 -66 -8 -228 -29 -360 -46 -132 -17 -256 -33 -276 -35 -20 -2
-72 -9 -115 -14 -97 -13 -207 -26 -339 -41 -55 -6 -116 -14 -135 -16 -75 -8
-531 -44 -640 -49 -63 -3 -135 -7 -160 -10 -25 -2 -90 -7 -145 -9 -169 -9
-307 -17 -375 -21 -36 -2 -121 -7 -190 -10 -69 -4 -145 -8 -170 -11 -25 -2
-103 -6 -174 -9 -72 -3 -148 -7 -170 -10 -23 -2 -95 -6 -161 -10 -66 -3 -145
-8 -175 -10 -100 -8 -553 -39 -880 -60 -129 -8 -304 -22 -389 -30 -85 -8 -168
-14 -185 -14 -32 2 25 9 199 28 55 6 208 22 340 36 628 66 1071 111 1910 195
1025 101 1075 107 1023 109 -23 0 -38 6 -38 14 0 8 19 12 58 13 31 1 235 18
452 38 503 46 480 44 645 57 77 6 142 11 145 12 3 0 17 -3 31 -7 14 -4 145 4
291 18 147 15 340 33 430 41 377 35 605 57 793 75 110 11 281 27 380 36 99 9
212 20 250 24 39 4 86 7 105 8 l35 0 -40 -8z m14051 -31 c19 -22 19 -22 -3 -8
-13 8 -23 17 -23 21 0 12 6 9 26 -13z m-24081 -9 c3 -6 -1 -7 -9 -4 -18 7 -21
14 -7 14 6 0 13 -4 16 -10z m79 -19 c4 -5 -3 -7 -14 -4 -23 6 -26 13 -6 13 8
0 17 -4 20 -9z m24100 -59 c34 -31 90 -83 125 -115 35 -31 61 -57 58 -57 -4 0
-50 39 -104 86 -135 121 -159 144 -149 144 5 0 37 -26 70 -58z m3386 44 c0 -3
-4 -8 -10 -11 -5 -3 -10 -1 -10 4 0 6 5 11 10 11 6 0 10 -2 10 -4z m-1393 -68
c-3 -8 -6 -5 -6 6 -1 11 2 17 5 13 3 -3 4 -12 1 -19z m23 -33 c0 -8 -2 -15 -4
-15 -2 0 -6 7 -10 15 -3 8 -1 15 4 15 6 0 10 -7 10 -15z m1377 -17 c-3 -7 -5
-2 -5 12 0 14 2 19 5 13 2 -7 2 -19 0 -25z m-19714 5 c-7 -2 -19 -2 -25 0 -7
3 -2 5 12 5 14 0 19 -2 13 -5z m19724 -95 c-3 -7 -5 -2 -5 12 0 14 2 19 5 13
2 -7 2 -19 0 -25z m-3104 -104 c23 -22 108 -99 189 -172 81 -73 150 -138 154
-145 8 -12 -11 4 -176 154 -52 47 -115 103 -140 125 -70 61 -117 108 -92 92
12 -9 42 -33 65 -54z m3124 -76 c-3 -8 -6 -5 -6 6 -1 11 2 17 5 13 3 -3 4 -12
1 -19z m-19299 -63 c-6 -6 -86 -16 -583 -70 -176 -19 -356 -40 -400 -45 -72
-9 -721 -79 -1480 -161 -154 -16 -341 -36 -415 -44 -1062 -115 -1273 -135
-1259 -121 6 7 771 91 2319 256 261 28 576 61 700 75 124 13 313 33 420 45
107 11 281 29 385 39 289 31 321 33 313 26z m10472 -210 c159 -94 698 -418
2120 -1272 557 -335 1325 -795 1353 -810 4 -2 7 -2 7 0 0 3 -20 17 -45 31 -25
15 -45 31 -45 36 0 14 30 12 160 -9 134 -22 113 -19 1070 -161 404 -60 762
-114 795 -120 33 -5 166 -26 295 -45 424 -64 612 -96 606 -102 -4 -4 -316 42
-1811 268 -544 82 -1001 148 -1015 147 -23 -3 -21 -6 20 -27 25 -13 56 -32 69
-42 13 -10 27 -16 32 -13 5 3 9 1 9 -5 0 -5 9 -12 20 -16 11 -3 42 -22 69 -41
28 -19 55 -34 61 -34 5 0 10 -4 10 -10 0 -5 4 -10 9 -10 5 0 36 -17 68 -38 68
-46 313 -196 498 -307 72 -43 153 -92 180 -110 74 -47 467 -288 490 -301 11
-6 119 -71 240 -146 121 -74 252 -153 292 -176 40 -23 75 -48 80 -55 4 -7 -3
-6 -17 4 -14 8 -230 138 -480 288 -250 150 -518 311 -595 358 -77 46 -246 148
-375 225 -129 78 -252 152 -273 165 -22 14 -41 23 -43 20 -4 -4 159 -104 786
-482 190 -114 372 -225 405 -245 33 -21 174 -106 313 -190 181 -109 253 -158
257 -173 3 -12 32 -157 66 -322 33 -165 139 -689 235 -1165 96 -476 226 -1119
289 -1430 63 -311 168 -835 235 -1165 67 -330 125 -626 131 -657 5 -31 23
-121 39 -199 17 -78 30 -149 29 -158 -1 -24 -17 33 -34 124 -9 44 -20 98 -25
120 -21 92 -93 427 -115 539 -13 67 -76 377 -140 691 -64 314 -154 757 -200
985 -46 228 -111 548 -144 710 -33 162 -134 664 -226 1115 -91 451 -167 820
-168 821 -1 1 -51 30 -112 66 -60 36 -400 239 -753 452 -354 213 -658 396
-675 405 -73 42 -800 481 -1302 786 -297 181 -799 484 -1115 675 -316 191
-712 430 -880 532 -295 179 -397 241 -742 453 -89 55 -165 99 -169 98 -4 -1
-10 4 -13 13 -3 8 -2 13 2 11 4 -2 81 -48 172 -102z m-15917 28 c-7 -2 -19 -2
-25 0 -7 3 -2 5 12 5 14 0 19 -2 13 -5z m-13 -49 c63 -26 201 -79 305 -119
105 -40 231 -89 280 -108 50 -19 718 -279 1485 -578 767 -298 1478 -575 1580
-614 104 -41 186 -78 188 -86 1 -8 -90 -378 -203 -824 -112 -445 -262 -1038
-332 -1317 -70 -279 -129 -504 -131 -500 -1 5 63 276 143 603 81 327 164 666
185 754 21 88 100 407 174 708 75 302 136 554 136 561 0 6 -66 37 -147 68
-130 50 -356 138 -1523 593 -615 240 -1325 518 -1560 610 -102 40 -261 103
-355 140 -93 37 -212 83 -262 103 -51 20 -93 40 -93 44 0 13 11 10 130 -38z
m22011 29 c13 -16 12 -17 -3 -4 -17 13 -22 21 -14 21 2 0 10 -8 17 -17z
m-15196 -33 c-3 -5 -12 -10 -18 -10 -7 0 -6 4 3 10 19 12 23 12 15 0z m13270
0 c3 -6 -1 -7 -9 -4 -18 7 -21 14 -7 14 6 0 13 -4 16 -10z m1975 -15 c13 -14
21 -25 18 -25 -2 0 -15 11 -28 25 -13 14 -21 25 -18 25 2 0 15 -11 28 -25z
m-1880 -41 c0 -2 -9 0 -20 6 -11 6 -20 13 -20 16 0 2 9 0 20 -6 11 -6 20 -13
20 -16z m-13490 -8 c0 -4 -138 -78 -495 -266 -49 -26 -164 -87 -255 -135 -91
-48 -250 -132 -355 -187 -104 -55 -226 -120 -270 -143 -69 -37 -320 -168 -865
-452 -69 -36 -161 -85 -205 -108 -44 -23 -138 -73 -210 -110 -71 -37 -131 -69
-132 -70 -3 -2 -143 -504 -143 -513 0 -3 -2 -3 -5 0 -9 9 124 511 138 524 6 6
75 44 152 84 77 40 358 187 625 327 477 251 803 422 1050 551 135 70 256 133
502 261 266 139 463 240 466 241 1 0 2 -2 2 -4z m13545 -24 c-3 -3 -11 0 -18
7 -9 10 -8 11 6 5 10 -3 15 -9 12 -12z m75 -38 c0 -2 -9 0 -20 6 -11 6 -20 13
-20 16 0 2 9 0 20 -6 11 -6 20 -13 20 -16z m110 -59 c0 -3 -18 4 -40 15 -22
11 -40 23 -40 25 0 3 18 -4 40 -15 22 -11 40 -23 40 -25z m1821 8 c13 -16 12
-17 -3 -4 -17 13 -22 21 -14 21 2 0 10 -8 17 -17z m-1713 -62 c45 -25 80 -46
78 -48 -4 -4 -166 83 -176 94 -8 10 12 0 98 -46z m-18271 -290 c488 -170 1035
-361 1215 -424 l328 -116 147 71 c82 38 315 149 518 245 204 96 449 212 545
258 225 107 515 243 560 262 132 57 -192 -105 -565 -282 -49 -23 -196 -93
-325 -155 -308 -147 -392 -187 -658 -314 l-223 -106 -642 225 c-546 190 -1022
357 -1687 590 -74 27 -137 49 -139 51 -26 23 171 -42 926 -305z m18588 119 c6
-4 40 -24 78 -44 37 -20 95 -51 130 -70 34 -18 118 -64 187 -101 69 -36 130
-71 135 -77 13 -14 -27 7 -235 120 -387 210 -520 283 -520 288 0 5 202 -100
225 -116z m-13365 56 c0 -2 -8 -10 -17 -17 -16 -13 -17 -12 -4 4 13 16 21 21
21 13z m-49 -79 c-10 -9 -11 -8 -5 6 3 10 9 15 12 12 3 -3 0 -11 -7 -18z m-21
-38 c-7 -11 -14 -19 -16 -16 -7 7 7 37 17 37 6 0 5 -9 -1 -21z m-96 -148 c-5
-3 -14 -15 -20 -26 -6 -11 -47 -75 -90 -142 -44 -68 -126 -196 -183 -285 -58
-90 -146 -226 -196 -303 -306 -471 -695 -1073 -725 -1120 -130 -207 -765
-1177 -791 -1209 -37 -46 -50 -60 -46 -51 6 13 83 141 111 185 13 19 92 143
176 275 148 233 276 430 545 837 72 109 179 273 239 365 99 151 223 341 341
523 23 36 105 162 182 280 77 118 188 289 247 380 168 258 211 320 215 308 2
-6 0 -13 -5 -17z m12126 -61 c8 -5 11 -10 5 -10 -5 0 -17 5 -25 10 -8 5 -10
10 -5 10 6 0 17 -5 25 -10z m100 -40 c8 -5 11 -10 5 -10 -5 0 -17 5 -25 10 -8
5 -10 10 -5 10 6 0 17 -5 25 -10z m1938 -34 c40 -21 71 -41 69 -43 -5 -4 -157
77 -157 84 0 6 1 6 88 -41z m-14178 14 c-6 -11 -13 -20 -16 -20 -2 0 0 9 6 20
6 11 13 20 16 20 2 0 0 -9 -6 -20z m12363 -27 c37 -14 65 -28 63 -30 -4 -4
-158 56 -166 64 -6 7 12 1 103 -34z m-12652 -1 c-11 -16 -28 -35 -38 -43 -9
-8 -2 5 17 29 38 48 52 57 21 14z m12970 -123 c101 -39 240 -92 309 -119 69
-26 188 -73 265 -103 77 -30 316 -123 530 -207 215 -83 476 -186 580 -227 105
-41 214 -84 243 -95 29 -11 52 -22 49 -24 -3 -4 -476 177 -867 331 -74 29
-218 85 -320 125 -102 40 -234 91 -295 115 -60 24 -216 84 -345 135 -307 119
-358 140 -338 140 3 0 88 -32 189 -71z m-13227 -196 c-114 -142 -226 -280
-250 -308 -23 -27 -61 -75 -85 -107 -45 -57 -270 -336 -411 -508 -43 -52 -113
-138 -156 -191 -42 -53 -156 -191 -252 -309 -96 -117 -186 -227 -200 -244 -40
-51 -213 -259 -232 -280 -10 -11 -18 -23 -18 -28 0 -4 -5 -8 -11 -8 -6 0 0 13
13 29 13 16 104 129 202 252 99 123 184 227 188 230 5 3 19 20 31 37 31 43
897 1107 1169 1437 9 11 60 73 113 138 53 64 98 117 101 117 3 0 -88 -116
-202 -257z m14976 192 c0 -3 -22 6 -50 20 -27 14 -50 28 -50 30 0 3 23 -6 50
-20 28 -14 50 -28 50 -30z m8898 -67 c5 -7 65 -155 132 -328 67 -173 207 -533
311 -800 104 -266 185 -488 181 -492 -10 -10 -94 -15 -1382 -78 -997 -49
-1280 -60 -1280 -50 0 5 444 29 1944 106 380 19 691 36 693 38 3 3 -605 1576
-613 1585 -4 5 -68 -18 -814 -287 -1033 -372 -1426 -512 -1441 -512 -8 1 9 9
36 19 455 169 724 267 1385 507 432 156 794 289 805 294 27 12 31 12 43 -2z
m-19562 -29 c3 -6 -5 -3 -20 6 -14 10 -26 19 -26 22 0 7 39 -17 46 -28z m-745
-26 c13 -16 12 -17 -3 -4 -17 13 -22 21 -14 21 2 0 10 -8 17 -17z m829 -29 c0
-2 -9 0 -20 6 -11 6 -20 13 -20 16 0 2 9 0 20 -6 11 -6 20 -13 20 -16z m-4040
10 c0 -8 -19 -13 -24 -6 -3 5 1 9 9 9 8 0 15 -2 15 -3z m-36 -52 c-26 -45 -56
-81 -47 -58 5 14 3 17 -7 11 -9 -5 -11 -4 -6 4 4 6 11 9 16 6 4 -3 18 11 30
30 26 41 39 48 14 7z m3376 -19 c0 -7 -39 17 -46 28 -3 6 5 3 20 -6 14 -10 26
-19 26 -22z m-2348 -20 c-7 -65 -12 -67 -12 -5 0 29 4 52 9 52 5 0 6 -21 3
-47z m3144 16 c3 -6 -5 -3 -20 6 -14 10 -26 19 -26 22 0 7 39 -17 46 -28z
m-752 -28 c-2 -3 -12 3 -22 13 -16 17 -16 18 5 5 12 -7 20 -15 17 -18z m86
-57 c0 -3 -13 4 -30 16 -16 12 -30 24 -30 26 0 3 14 -4 30 -16 17 -12 30 -24
30 -26z m-3576 -1 c-69 -107 -81 -123 -67 -86 5 12 3 14 -8 8 -8 -5 -11 -5 -6
1 5 5 14 9 20 9 5 0 12 6 15 14 3 9 0 11 -9 6 -8 -5 -11 -4 -6 1 5 5 14 9 20
9 5 0 12 6 15 14 3 9 0 11 -8 6 -9 -5 -11 -4 -6 4 4 6 11 9 16 6 5 -3 14 4 20
15 6 11 13 20 17 20 3 0 -3 -12 -13 -27z m1087 -49 l-9 -39 -1 50 c-1 33 2 46
9 39 7 -7 7 -24 1 -50z m2520 29 c13 -16 12 -17 -3 -4 -10 7 -18 15 -18 17 0
8 8 3 21 -13z m129 -89 c0 -8 -100 61 -100 68 0 5 23 -8 50 -28 28 -20 50 -38
50 -40z m10145 28 c-3 -3 -11 0 -18 7 -9 10 -8 11 6 5 10 -3 15 -9 12 -12z
m-11924 -47 c8 -28 8 -29 -6 -11 -8 11 -15 31 -14 45 1 26 3 23 20 -34z
m11969 35 c8 -5 11 -10 5 -10 -5 0 -17 5 -25 10 -8 5 -10 10 -5 10 6 0 17 -5
25 -10z m-12845 -47 c-2 -27 -9 -102 -15 -168 -25 -307 -171 -1920 -244 -2715
-14 -146 -28 -272 -31 -280 -7 -17 -404 -315 -410 -308 -3 2 85 73 195 157
172 132 200 157 205 184 4 27 244 2664 277 3050 6 70 15 127 20 127 5 0 6 -21
3 -47z m-1171 0 c-10 -16 -82 -127 -159 -248 -78 -121 -166 -258 -197 -305
-88 -135 -297 -459 -337 -523 -20 -32 -77 -121 -127 -197 -51 -77 -101 -156
-113 -176 -12 -19 -25 -33 -30 -29 -5 3 -13 0 -17 -6 -4 -8 -3 -9 4 -5 18 11
15 -3 -9 -40 -11 -19 -25 -32 -29 -29 -5 3 -12 0 -16 -6 -4 -8 -3 -9 4 -5 23
14 11 -10 -48 -98 -32 -49 -66 -91 -75 -92 -8 -1 -15 1 -15 4 0 14 20 37 31
37 7 0 23 17 36 39 14 21 20 35 14 31 -6 -3 -18 -20 -27 -37 -8 -16 -18 -28
-20 -25 -9 8 46 88 56 82 5 -3 12 0 16 6 5 8 3 9 -6 4 -10 -6 -12 -4 -7 8 5
14 297 467 551 857 45 69 97 149 116 178 35 55 43 63 34 35 -5 -15 -3 -15 10
1 18 23 21 40 5 30 -6 -3 -3 5 6 20 9 14 21 24 25 21 9 -6 40 33 40 50 0 5
-10 -1 -21 -15 l-21 -25 18 30 c28 48 66 105 70 105 2 0 1 -8 -2 -17 -5 -15
-3 -15 10 1 19 24 21 40 4 29 -7 -4 -4 6 6 22 59 90 69 104 77 100 4 -3 15 5
23 17 19 27 21 42 4 32 -8 -4 -10 -3 -5 2 5 5 14 9 20 9 5 0 12 6 15 14 3 9 0
11 -9 6 -8 -5 -11 -4 -6 1 5 5 14 9 20 9 5 0 12 6 15 14 3 9 0 11 -8 6 -14 -9
10 36 41 76 16 20 18 21 14 4 -6 -18 -4 -18 11 3 23 31 30 27 8 -5z m4049
-113 c70 -47 127 -88 127 -92 0 -7 -287 186 -305 205 -14 15 31 -14 178 -113z
m-1804 40 c0 -8 -7 1 -14 20 -18 46 -17 64 0 25 8 -16 14 -37 14 -45z m-179
30 c0 -5 -2 -10 -4 -10 -3 0 -8 5 -11 10 -3 6 -1 10 4 10 6 0 11 -4 11 -10z
m12210 -10 c8 -5 11 -10 5 -10 -5 0 -17 5 -25 10 -8 5 -10 10 -5 10 6 0 17 -5
25 -10z m-12200 -20 c0 -5 -5 -10 -11 -10 -5 0 -7 5 -4 10 3 6 8 10 11 10 2 0
4 -4 4 -10z m12250 0 c8 -5 11 -10 5 -10 -5 0 -17 5 -25 10 -8 5 -10 10 -5 10
6 0 17 -5 25 -10z m-5239 -17 c13 -16 12 -17 -3 -4 -17 13 -22 21 -14 21 2 0
10 -8 17 -17z m-13781 -19 c0 -2 -9 0 -20 6 -11 6 -20 13 -20 16 0 2 9 0 20
-6 11 -6 20 -13 20 -16z m6853 -244 c338 -1107 405 -1335 397 -1349 -5 -9
-433 -439 -951 -956 -518 -517 -934 -929 -925 -915 9 13 348 358 753 765 406
407 822 826 925 930 l187 190 -85 280 c-253 839 -373 1244 -378 1280 -7 52 -5
43 77 -225z m-6818 222 c-3 -3 -11 0 -18 7 -9 10 -8 11 6 5 10 -3 15 -9 12
-12z m13798 -12 c9 -11 13 -20 7 -20 -5 0 -14 9 -20 20 -6 11 -9 20 -8 20 2 0
11 -9 21 -20z m-6859 -16 c3 -8 2 -12 -4 -9 -6 3 -10 10 -10 16 0 14 7 11 14
-7z m-6666 -128 c131 -78 132 -79 132 -115 -1 -45 -127 -924 -129 -894 -1 12
26 223 60 469 33 246 56 450 52 455 -4 4 -80 51 -168 104 -88 53 -164 101
-170 106 -13 13 55 -25 223 -125z m6753 -114 c59 -164 77 -204 93 -207 12 -3
118 -21 236 -40 345 -55 1140 -187 1915 -316 396 -66 749 -125 785 -131 36 -5
72 -14 80 -19 10 -6 5 -7 -15 -4 -1212 195 -3014 493 -3025 500 -4 3 -15 24
-23 48 -8 23 -43 121 -77 217 -33 96 -57 171 -52 165 5 -5 42 -101 83 -213z
m19319 203 c-14 -8 -32 -14 -40 -14 -8 0 -1 6 15 14 40 18 57 18 25 0z
m-17446 -45 c48 -37 41 -40 -11 -4 -45 30 -49 34 -37 34 5 0 27 -14 48 -30z
m5048 -65 c6 -11 -4 -5 -21 13 -17 18 -31 36 -31 39 0 11 41 -31 52 -52z
m-4987 25 c3 -5 1 -10 -4 -10 -6 0 -11 5 -11 10 0 6 2 10 4 10 3 0 8 -4 11
-10z m30 -20 c3 -5 1 -10 -4 -10 -6 0 -11 5 -11 10 0 6 2 10 4 10 3 0 8 -4 11
-10z m210 -145 c179 -120 170 -113 163 -120 -2 -3 -13 3 -24 13 -11 9 -90 64
-177 122 -86 58 -157 109 -157 114 0 5 8 2 18 -6 9 -9 89 -64 177 -123z
m-5005 78 c-11 -21 -25 -45 -30 -53 -5 -8 -45 -78 -88 -155 -43 -77 -93 -163
-110 -191 -18 -28 -32 -54 -32 -56 0 -3 -30 -57 -66 -119 -37 -63 -78 -134
-92 -159 -81 -147 -168 -297 -178 -308 -7 -6 -16 -21 -19 -32 -3 -11 -11 -20
-17 -20 -6 0 -9 -3 -5 -6 8 -8 -18 -59 -53 -104 -15 -19 -25 -41 -23 -47 3 -7
1 -13 -5 -13 -5 0 -17 -16 -28 -35 -10 -19 -22 -35 -26 -35 -5 0 -8 -7 -8 -16
0 -8 -4 -12 -10 -9 -5 3 -7 0 -5 -7 3 -8 -5 -24 -17 -35 -31 -29 -50 -53 -43
-53 4 0 -1 -7 -9 -16 -9 -8 -16 -21 -16 -28 0 -7 -11 -23 -25 -36 -14 -13 -25
-29 -25 -37 0 -7 -4 -13 -8 -13 -4 0 -16 -15 -27 -32 -10 -18 -33 -51 -52 -74
-18 -23 -33 -44 -33 -47 0 -4 -17 -32 -37 -62 -21 -31 -52 -78 -69 -105 -17
-27 -46 -69 -63 -92 -86 -114 -141 -192 -141 -198 0 -4 -11 -20 -25 -36 -14
-16 -25 -32 -25 -36 0 -4 -6 -13 -13 -20 -6 -7 -35 -47 -62 -88 -27 -41 -52
-77 -55 -80 -8 -8 -80 -119 -80 -124 0 -2 -28 -46 -62 -98 -60 -89 -142 -213
-163 -246 -5 -8 -54 -81 -108 -161 -54 -80 -105 -156 -112 -170 -8 -15 -26
-39 -40 -56 l-26 -30 15 32 c13 27 178 301 257 428 14 22 29 47 32 55 4 8 30
49 57 90 27 41 61 95 75 120 14 25 34 59 45 75 11 17 38 62 60 100 52 90 61
104 85 140 34 50 153 247 185 305 17 30 35 62 40 70 19 29 90 146 118 195 16
28 38 66 49 85 12 19 50 87 86 150 125 220 205 346 322 510 29 41 79 113 111
160 32 47 94 137 139 200 87 122 396 560 440 623 15 20 28 37 31 37 2 0 -5
-17 -16 -37z m15580 15 c10 -6 7 -7 -10 -2 -14 3 -32 11 -40 16 -10 6 -7 7 10
2 14 -3 32 -11 40 -16z m-5750 -33 c13 -14 21 -25 18 -25 -2 0 -15 11 -28 25
-13 14 -21 25 -18 25 2 0 15 -11 28 -25z m5800 15 c8 -5 11 -10 5 -10 -5 0
-17 5 -25 10 -8 5 -10 10 -5 10 6 0 17 -5 25 -10z m90 -35 c14 -8 21 -14 15
-14 -5 0 -21 6 -35 14 -14 8 -20 14 -15 14 6 0 21 -6 35 -14z m-7535 -274 c33
-25 62 -49 63 -53 2 -5 9 -8 15 -8 7 0 30 -17 52 -37 22 -20 67 -58 101 -84
33 -26 80 -66 105 -88 24 -23 49 -41 56 -41 6 0 13 -4 15 -8 3 -9 166 -147
232 -197 22 -17 51 -41 66 -55 15 -14 38 -33 51 -43 34 -25 142 -110 155 -122
6 -5 28 -23 49 -40 22 -16 60 -48 85 -71 56 -50 248 -209 298 -247 20 -15 57
-47 83 -71 25 -24 79 -72 120 -107 40 -35 146 -133 234 -219 88 -85 221 -211
295 -280 240 -223 263 -245 390 -366 69 -66 161 -153 205 -194 43 -41 142
-136 220 -210 409 -396 432 -417 584 -560 68 -63 130 -116 137 -118 8 -2 14
-7 14 -12 0 -8 13 -21 270 -267 242 -232 374 -367 348 -357 -10 3 -18 10 -18
14 0 5 -10 12 -22 16 -26 8 -68 41 -278 226 -47 41 -96 84 -110 95 -14 12 -61
52 -106 90 -44 37 -134 113 -199 168 -65 55 -162 138 -216 185 -211 186 -502
436 -517 444 -10 5 -42 30 -73 55 -31 25 -67 55 -81 66 -14 11 -54 45 -89 77
-61 54 -108 93 -179 148 -17 14 -53 44 -78 67 -25 23 -50 39 -54 37 -4 -3 -8
-1 -8 4 0 5 -9 13 -19 18 -21 10 -62 44 -260 218 -75 65 -149 130 -166 144
-16 14 -75 67 -130 117 -116 104 -241 215 -305 271 -25 21 -67 60 -95 86 -27
25 -61 56 -75 68 -62 54 -120 110 -111 110 8 0 161 -131 271 -233 84 -78 97
-87 97 -73 0 6 -6 17 -14 24 -7 7 -13 10 -13 7 0 -4 -13 6 -29 22 -16 15 -27
31 -24 36 2 4 1 6 -4 5 -9 -3 -63 36 -63 46 0 3 -28 35 -62 69 -35 35 -70 72
-78 83 -9 10 -39 39 -68 63 -28 24 -48 49 -45 55 3 6 3 8 -2 4 -7 -7 -152 138
-154 155 -2 13 -36 44 -43 40 -5 -2 -8 0 -8 5 0 11 -97 117 -195 212 -44 43
-159 155 -255 248 -96 94 -213 203 -260 243 -167 143 -290 252 -290 256 0 2
28 -17 63 -43 34 -26 89 -68 122 -93z m-2949 79 c24 -17 44 -33 44 -36 0 -6
-47 21 -81 47 -39 30 -11 22 37 -11z m124 -93 c0 -4 -16 4 -35 19 -45 34 -45
41 0 12 19 -13 35 -27 35 -31z m4730 28 c13 -14 21 -25 18 -25 -2 0 -15 11
-28 25 -13 14 -21 25 -18 25 2 0 15 -11 28 -25z m-4700 -45 c0 -5 -2 -10 -4
-10 -3 0 -8 5 -11 10 -3 6 -1 10 4 10 6 0 11 -4 11 -10z m207 -137 c103 -70
206 -140 228 -155 22 -16 61 -43 88 -59 26 -17 47 -33 47 -35 0 -7 -41 16 -90
51 -25 17 -130 90 -235 160 -197 133 -242 165 -232 165 4 0 91 -57 194 -127z
m-8300 95 c-3 -8 -6 -5 -6 6 -1 11 2 17 5 13 3 -3 4 -12 1 -19z m12968 -98
c21 -22 37 -40 34 -40 -3 0 -23 18 -44 40 -21 22 -37 40 -34 40 3 0 23 -18 44
-40z m2355 -7 c0 -7 -39 17 -46 28 -3 6 5 3 20 -6 14 -10 26 -19 26 -22z m530
-318 c165 -100 461 -279 675 -410 88 -54 264 -161 390 -238 478 -290 640 -390
652 -401 11 -10 78 -378 87 -479 3 -26 8 -51 11 -57 3 -5 3 -15 -1 -22 -4 -7
-27 105 -50 247 -24 143 -46 270 -48 281 -5 20 -52 51 -371 244 -38 23 -86 52
-105 65 -45 29 -558 342 -1133 692 -147 90 -293 179 -323 198 -30 19 -56 35
-58 35 -7 0 -210 130 -221 141 -5 6 73 -40 175 -102 102 -62 246 -149 320
-194z m-2750 178 c25 -26 32 -37 17 -25 -25 19 -73 72 -65 72 2 0 23 -21 48
-47z m5457 -99 c-3 -3 -12 -4 -19 -1 -8 3 -5 6 6 6 11 1 17 -2 13 -5z m-5206
-171 c13 -16 12 -17 -3 -4 -17 13 -22 21 -14 21 2 0 10 -8 17 -17z m-3495 -54
c10 -11 13 -19 7 -17 -6 2 -10 -1 -10 -7 2 -16 49 -65 58 -60 6 4 143 -154
199 -230 14 -19 14 -19 -2 -6 -10 7 -18 9 -18 4 0 -14 21 -32 34 -28 6 2 43
-35 82 -83 38 -48 110 -136 160 -195 49 -60 89 -116 89 -125 1 -10 6 -16 13
-15 6 2 9 -3 6 -11 -3 -8 -1 -17 5 -21 6 -3 11 -1 11 5 0 9 31 -26 129 -144
11 -13 12 -17 2 -11 -9 5 -12 3 -9 -6 3 -8 9 -14 14 -14 17 0 34 -16 28 -26
-3 -5 0 -18 6 -27 26 -37 -202 232 -320 379 -28 34 -284 345 -358 434 -128
154 -150 183 -140 193 6 6 6 12 0 16 -11 7 -112 -80 -112 -97 0 -6 21 9 47 33
46 43 47 44 13 5 -19 -21 -132 -138 -251 -260 -118 -121 -242 -249 -275 -284
-32 -35 -154 -158 -271 -274 -117 -116 -210 -214 -207 -219 3 -5 0 -7 -8 -6
-7 2 -12 -3 -10 -10 1 -8 -1 -11 -5 -9 -5 3 -33 -20 -63 -51 -41 -41 -47 -51
-25 -38 l30 17 -25 -21 c-72 -62 -80 -71 -73 -83 5 -9 3 -9 -9 1 -12 10 -18
10 -28 -2 -6 -9 -9 -20 -6 -25 4 -5 -9 -26 -29 -45 -19 -19 -35 -40 -35 -46 0
-5 -7 -10 -15 -10 -8 0 -14 -3 -14 -7 4 -25 -3 -35 -21 -30 -16 4 -18 2 -10
-13 8 -15 5 -23 -15 -38 -13 -11 -21 -22 -18 -26 3 -3 -5 -6 -18 -7 -13 0 -19
-3 -12 -6 10 -3 10 -7 0 -18 -7 -7 -15 -11 -19 -8 -5 2 -8 -2 -8 -9 0 -7 -16
-31 -36 -53 -19 -22 -44 -56 -54 -75 -11 -19 -19 -31 -20 -27 0 11 -70 -63
-70 -75 0 -5 -4 -6 -10 -3 -5 3 -10 1 -10 -5 0 -14 -96 -110 -110 -110 -5 0
-10 -5 -10 -12 0 -6 -23 -33 -51 -60 -28 -26 -47 -48 -43 -48 4 0 -8 -11 -27
-25 -19 -14 -50 -43 -69 -63 -37 -40 -229 -224 -345 -332 -39 -35 -163 -152
-276 -260 -244 -231 -459 -433 -469 -440 -4 -3 -99 -93 -211 -199 -242 -231
-273 -262 -1538 -1549 -289 -292 -526 -530 -529 -527 -3 2 49 60 115 127 426
436 557 572 704 723 90 93 290 298 444 455 154 157 373 379 485 493 113 115
207 211 210 215 7 11 -507 -497 -844 -834 -171 -170 -331 -328 -356 -350 l-45
-39 44 50 c25 28 396 403 826 835 764 768 990 998 1150 1170 44 47 112 118
152 158 39 39 70 72 68 72 -2 0 26 30 62 68 37 37 70 66 75 64 4 -1 7 2 6 6
-2 5 49 61 112 125 63 64 144 147 179 184 35 37 61 61 56 53 -7 -15 37 32 77
81 12 15 27 25 34 22 7 -2 15 1 20 8 5 8 3 10 -7 4 -8 -5 -5 1 5 14 11 12 25
20 32 17 7 -3 20 5 31 17 l18 22 -25 -20 -24 -20 24 31 c14 17 28 29 33 27 4
-2 11 7 17 21 5 14 13 26 18 26 19 0 100 77 493 474 231 232 421 416 427 412
6 -3 14 -1 18 5 5 8 3 9 -7 4 -8 -5 -11 -5 -7 -1 3 4 32 37 63 72 32 35 62 64
68 64 6 0 -15 -27 -48 -60 -33 -33 -57 -60 -55 -60 3 0 127 123 275 272 193
195 212 216 66 73 -112 -110 -202 -195 -200 -188 6 17 552 570 565 572 6 0 19
-8 30 -20z m-11086 -69 l-11 -25 6 25 c2 14 5 36 6 50 l2 25 4 -25 c2 -14 -1
-37 -7 -50z m14675 20 c10 -11 16 -20 13 -20 -3 0 -13 9 -23 20 -10 11 -16 20
-13 20 3 0 13 -9 23 -20z m11332 -6 c-3 -3 -12 -4 -19 -1 -8 3 -5 6 6 6 11 1
17 -2 13 -5z m2804 -99 c9 -33 33 -121 53 -195 19 -74 51 -193 69 -265 19 -71
60 -229 91 -350 31 -121 61 -236 66 -256 6 -20 10 -45 9 -55 -1 -25 -99 339
-259 956 -30 113 -54 206 -56 208 -1 2 -240 -4 -532 -13 -292 -9 -539 -15
-549 -12 -10 3 5 6 32 7 402 16 980 37 1015 36 l44 -1 17 -60z m-28824 3 c-3
-8 -6 -5 -6 6 -1 11 2 17 5 13 3 -3 4 -12 1 -19z m27692 18 c-2 -2 -40 -6 -84
-8 -44 -3 -69 -2 -55 2 25 8 147 13 139 6z m-526 -23 c-7 -2 -19 -2 -25 0 -7
3 -2 5 12 5 14 0 19 -2 13 -5z m-12308 -73 c10 -11 16 -20 13 -20 -3 0 -13 9
-23 20 -10 11 -16 20 -13 20 3 0 13 -9 23 -20z m-5035 -24 c0 -2 -7 -7 -16
-10 -8 -3 -12 -2 -9 4 6 10 25 14 25 6z m5126 -78 l29 -33 -32 29 c-31 28 -38
36 -30 36 2 0 16 -15 33 -32z m-5769 -14 c-3 -3 -12 -4 -19 -1 -8 3 -5 6 6 6
11 1 17 -2 13 -5z m-84 -11 c-7 -2 -19 -2 -25 0 -7 3 -2 5 12 5 14 0 19 -2 13
-5z m2547 -30 c0 -7 -39 17 -46 28 -3 6 5 3 20 -6 14 -10 26 -19 26 -22z
m-2621 23 c-2 -3 -72 -14 -154 -25 -83 -11 -267 -36 -410 -56 -289 -40 -347
-47 -1023 -139 l-474 -64 -441 -441 c-243 -242 -453 -448 -467 -457 -14 -9
185 193 442 450 256 256 470 466 475 466 4 0 226 29 493 65 1597 216 1571 212
1559 201z m4146 -114 c-3 -3 -18 7 -33 23 l-27 28 33 -23 c18 -12 31 -25 27
-28z m-9908 24 c-2 -6 -9 -11 -14 -11 -6 0 -15 -4 -20 -9 -5 -5 -3 -6 5 -2 6
4 12 4 12 1 0 -16 -143 -224 -150 -220 -5 3 -18 -7 -30 -22 -24 -31 -27 -35
46 82 97 154 124 192 139 192 8 0 14 -5 12 -11z m-657 0 c0 -2 -7 -7 -16 -10
-8 -3 -12 -2 -9 4 6 10 25 14 25 6z m12649 -209 c4 -11 -123 122 -169 178 -19
22 11 -7 66 -64 54 -57 101 -108 103 -114z m-4759 88 c-7 -9 -15 -13 -17 -11
-7 7 7 26 19 26 6 0 6 -6 -2 -15z m9087 -51 c-3 -3 -12 -4 -19 -1 -8 3 -5 6 6
6 11 1 17 -2 13 -5z m-72 -15 c-22 -4 -56 -7 -75 -7 -32 1 -31 2 10 8 25 4 59
7 75 7 25 1 23 -1 -10 -8z m-150 -20 c-62 -15 -232 -39 -262 -38 -39 2 -16 7
127 28 136 20 201 25 135 10z m-7274 -16 c13 -16 12 -17 -3 -4 -17 13 -22 21
-14 21 2 0 10 -8 17 -17z m-9038 -96 c7 3 10 4 7 0 -3 -3 -8 -5 -11 -4 -3 1
-14 -5 -24 -13 -17 -14 -17 -14 -4 8 8 12 15 18 17 12 2 -6 9 -7 15 -3z
m12483 -187 c45 -47 145 -155 224 -240 79 -85 303 -328 499 -539 196 -212 442
-477 546 -591 235 -255 1080 -1170 1270 -1375 181 -195 406 -444 424 -470 21
-29 -118 112 -244 250 -61 65 -140 151 -176 190 -36 38 -126 135 -199 215
-224 243 -231 251 -242 244 -7 -5 -8 -2 -3 5 9 16 -93 123 -108 114 -6 -3 -7
-1 -3 6 9 13 -122 153 -135 145 -5 -3 -6 1 -4 8 3 8 -8 27 -25 43 -16 16 -30
25 -30 21 0 -5 -7 -3 -15 4 -8 7 -13 16 -10 20 6 9 -13 24 -30 25 -5 1 -9 7
-7 14 3 16 -57 83 -68 76 -10 -6 -53 42 -56 61 -3 19 -35 56 -42 49 -9 -8 -82
67 -75 77 6 11 -47 69 -57 63 -10 -6 -53 42 -56 62 -3 18 -65 85 -73 78 -7 -7
-41 26 -36 35 7 12 -196 230 -208 223 -6 -3 -7 -2 -4 4 3 5 -83 106 -191 224
-108 118 -296 323 -416 454 -317 347 -403 440 -477 520 -80 85 -149 164 -149
172 0 3 21 -19 47 -48 27 -30 84 -92 129 -139z m-12506 140 c-6 -11 -13 -20
-16 -20 -2 0 0 9 6 20 6 11 13 20 16 20 2 0 0 -9 -6 -20z m9003 -315 c20 -26
23 -33 9 -21 -12 11 -22 15 -22 9 0 -13 45 -55 52 -48 3 3 11 -2 19 -12 9 -11
10 -14 2 -9 -7 4 -13 3 -13 -2 0 -12 25 -33 32 -27 2 3 15 -7 29 -22 13 -15
16 -21 7 -14 -10 7 -18 9 -18 3 0 -15 26 -33 35 -24 5 4 5 1 1 -6 -9 -14 31
-65 44 -57 4 3 16 -5 26 -18 16 -18 16 -19 2 -8 -10 7 -18 9 -18 4 0 -13 35
-44 42 -37 3 3 9 0 14 -7 4 -8 3 -10 -4 -5 -7 4 -12 3 -12 -2 0 -10 38 -47 49
-47 3 0 5 -4 3 -8 -1 -5 18 -34 44 -65 l46 -57 -48 54 c-105 115 -430 516
-422 519 4 2 6 9 2 15 -7 16 60 -58 99 -108z m-2201 -177 c-7 -7 -12 -8 -12
-2 0 14 12 26 19 19 2 -3 -1 -11 -7 -17z m19295 -10 c-3 -8 -6 -5 -6 6 -1 11
2 17 5 13 3 -3 4 -12 1 -19z m10 -40 c-3 -8 -6 -5 -6 6 -1 11 2 17 5 13 3 -3
4 -12 1 -19z m33 -62 c0 -3 -4 -8 -10 -11 -5 -3 -10 -1 -10 4 0 6 5 11 10 11
6 0 10 -2 10 -4z m10 -40 c0 -3 -4 -8 -10 -11 -5 -3 -10 -1 -10 4 0 6 5 11 10
11 6 0 10 -2 10 -4z m-10211 -286 c22 -129 36 -238 32 -242 -3 -4 -24 97 -45
225 -50 307 -49 297 -36 272 5 -11 27 -126 49 -255z m10214 245 c-3 -9 -8 -14
-10 -11 -3 3 -2 9 2 15 9 16 15 13 8 -4z m-28519 -34 c-4 -17 -9 -30 -11 -27
-3 2 -2 19 2 36 9 41 17 33 9 -9z m5352 -59 c-18 -16 -18 -16 -6 6 6 13 14 21
18 18 3 -4 -2 -14 -12 -24z m-5369 -4 c-3 -8 -6 -5 -6 6 -1 11 2 17 5 13 3 -3
4 -12 1 -19z m12857 -37 c-6 -6 -34 20 -46 43 -8 15 -2 12 20 -9 17 -16 29
-32 26 -34z m-7514 22 c0 -5 -17 -21 -38 -37 l-37 -29 34 36 c36 39 41 42 41
30z m-5353 -25 c-3 -8 -6 -5 -6 6 -1 11 2 17 5 13 3 -3 4 -12 1 -19z m11812
-31 c-2 -3 -15 10 -28 27 l-24 31 28 -27 c16 -15 27 -29 24 -31z m4496 33 c10
-11 16 -20 13 -20 -3 0 -13 9 -23 20 -10 11 -16 20 -13 20 3 0 13 -9 23 -20z
m-3385 -45 c19 -19 30 -35 25 -35 -5 0 1 -7 13 -16 12 -8 22 -19 22 -24 0 -9
-48 35 -90 83 -34 39 -10 33 30 -8z m-12933 3 c-3 -8 -6 -5 -6 6 -1 11 2 17 5
13 3 -3 4 -12 1 -19z m16373 -13 l25 -30 -27 24 c-16 14 -28 29 -28 34 0 6 1
8 3 6 1 -2 13 -17 27 -34z m-4519 -12 c13 -16 12 -17 -3 -4 -10 7 -18 15 -18
17 0 8 8 3 21 -13z m-11864 -15 c-3 -8 -6 -5 -6 6 -1 11 2 17 5 13 3 -3 4 -12
1 -19z m-10 -40 c-3 -8 -6 -5 -6 6 -1 11 2 17 5 13 3 -3 4 -12 1 -19z m16478
-18 c10 -11 16 -20 13 -20 -3 0 -13 9 -23 20 -10 11 -16 20 -13 20 3 0 13 -9
23 -20z m-3430 -19 c-6 -5 -25 10 -25 20 0 5 6 4 14 -3 8 -7 12 -15 11 -17z
m-13058 -3 c-3 -8 -6 -5 -6 6 -1 11 2 17 5 13 3 -3 4 -12 1 -19z m11963 -3
c13 -14 21 -25 18 -25 -2 0 -15 11 -28 25 -13 14 -21 25 -18 25 2 0 15 -11 28
-25z m4590 -40 c19 -19 32 -35 29 -35 -3 0 -20 16 -39 35 -19 19 -32 35 -29
35 3 0 20 -16 39 -35z m-16563 3 c-3 -8 -6 -5 -6 6 -1 11 2 17 5 13 3 -3 4
-12 1 -19z m13113 1 c16 -29 9 -30 -20 -3 -20 19 -21 24 -8 24 10 0 22 -9 28
-21z m82 -93 c6 -11 -6 -4 -26 16 -20 19 -36 39 -36 43 0 12 50 -36 62 -59z
m25 -23 c-4 -3 2 -12 13 -20 11 -8 20 -19 20 -25 0 -6 -11 -1 -25 12 -21 20
-25 40 -8 40 4 0 3 -3 0 -7z m3495 -47 c9 -18 8 -19 -3 -6 -8 8 -21 20 -29 27
-13 11 -13 12 3 7 10 -4 22 -16 29 -28z m-16755 2 c-3 -8 -6 -5 -6 6 -1 11 2
17 5 13 3 -3 4 -12 1 -19z m13420 -129 c27 -29 40 -49 34 -54 -6 -3 -11 -1
-11 5 0 6 -20 31 -45 54 -25 24 -45 48 -45 52 0 5 -11 18 -25 28 -14 10 -25
24 -25 30 0 6 17 -7 36 -29 20 -22 56 -61 81 -86z m5053 90 c0 -10 -4 -19 -10
-19 -5 0 -10 12 -10 26 0 14 4 23 10 19 6 -3 10 -15 10 -26z m-1660 -24 c19
-19 32 -35 29 -35 -3 0 -20 16 -39 35 -19 19 -32 35 -29 35 3 0 20 -16 39 -35z
m1670 -36 c0 -5 -4 -9 -10 -9 -5 0 -10 7 -10 16 0 8 5 12 10 9 6 -3 10 -10 10
-16z m-1559 -79 c28 -28 49 -53 47 -55 -2 -2 -28 20 -57 50 -68 69 -60 72 10
5z m1566 18 c-3 -8 -6 -5 -6 6 -1 11 2 17 5 13 3 -3 4 -12 1 -19z m13 -67 c0
-34 -10 -20 -15 20 -3 25 -2 30 5 19 5 -8 10 -26 10 -39z m-14240 19 c-14 -11
-31 -25 -37 -30 -8 -6 -13 -7 -13 -1 0 8 59 51 70 50 3 0 -6 -9 -20 -19z
m9236 -18 c-6 -5 -36 23 -36 34 0 4 9 -1 20 -11 11 -10 18 -20 16 -23z m48
-47 c15 -19 22 -35 17 -35 -6 0 -11 4 -11 9 0 4 -11 20 -25 35 -13 14 -20 26
-16 26 5 0 21 -16 35 -35z m4963 -7 c-3 -8 -6 -5 -6 6 -1 11 2 17 5 13 3 -3 4
-12 1 -19z m-14357 -8 c0 -5 -5 -10 -11 -10 -5 0 -7 5 -4 10 3 6 8 10 11 10 2
0 4 -4 4 -10z m316 -45 c-9 -9 -16 -13 -16 -8 0 12 22 34 28 28 2 -2 -3 -11
-12 -20z m9149 -15 c40 -42 27 -46 -15 -4 -19 19 -29 34 -24 34 6 0 23 -13 39
-30z m3463 5 c-3 -3 -9 2 -12 12 -6 14 -5 15 5 6 7 -7 10 -15 7 -18z m1429 3
c-3 -8 -6 -5 -6 6 -1 11 2 17 5 13 3 -3 4 -12 1 -19z m-1397 -33 c14 -19 14
-19 -2 -6 -10 7 -18 18 -18 24 0 6 1 8 3 6 1 -2 9 -13 17 -24z m-3436 -46 c-3
-5 0 -9 5 -9 6 0 11 -5 11 -11 0 -8 -5 -7 -15 1 -9 7 -13 15 -10 18 3 3 -1 12
-8 21 -11 14 -10 14 5 2 10 -7 15 -17 12 -22z m-9274 17 c0 -2 -8 -10 -17 -17
-16 -13 -17 -12 -4 4 13 16 21 21 21 13z m14134 -51 c5 -22 4 -26 -4 -15 -5 8
-10 24 -10 34 0 26 6 18 14 -19z m-4676 -159 c29 -30 53 -58 52 -61 0 -3 21
-26 47 -50 26 -25 44 -45 40 -45 -4 0 17 -23 47 -51 31 -28 54 -55 51 -59 -2
-4 7 -12 21 -19 14 -6 22 -16 19 -21 -3 -6 -1 -10 4 -10 6 0 11 -5 11 -12 0
-7 -16 3 -35 22 -19 18 -33 35 -31 37 2 2 -43 52 -100 110 -57 59 -102 108
-101 110 2 1 -39 46 -90 100 -51 54 -93 101 -93 106 0 4 24 -17 53 -47 28 -30
76 -79 105 -110z m3377 114 c3 -6 -1 -7 -9 -4 -18 7 -21 14 -7 14 6 0 13 -4
16 -10z m1315 -16 c0 -8 -4 -12 -10 -9 -5 3 -10 10 -10 16 0 5 5 9 10 9 6 0
10 -7 10 -16z m-1264 -37 c3 -21 1 -21 -20 2 -17 19 -17 19 0 17 9 -2 18 -10
20 -19z m1274 -29 c0 -19 -2 -20 -10 -8 -13 19 -13 30 0 30 6 0 10 -10 10 -22z
m-5960 -37 c-8 -5 -76 -35 -150 -66 -74 -31 -153 -65 -175 -75 -22 -10 -105
-46 -185 -80 -80 -34 -158 -68 -175 -75 -36 -16 -306 -131 -855 -365 -223 -95
-439 -187 -480 -205 -41 -18 -178 -77 -305 -130 -126 -54 -306 -130 -400 -170
-284 -121 -695 -296 -790 -335 -49 -21 -193 -81 -320 -135 -126 -54 -255 -108
-285 -120 -30 -13 -124 -53 -209 -89 -85 -36 -150 -61 -145 -56 9 9 1104 480
2009 865 204 86 431 183 505 215 161 69 800 340 1025 435 88 37 189 80 225 95
186 80 520 220 525 220 2 0 38 15 77 33 40 19 80 36 88 40 23 9 37 7 20 -2z
m4770 -26 c19 -19 32 -35 29 -35 -3 0 -20 16 -39 35 -19 19 -32 35 -29 35 3 0
20 -16 39 -35z m1200 13 c0 -18 -2 -20 -9 -8 -6 8 -7 18 -5 22 9 14 14 9 14
-14z m12 -133 c-4 -15 -8 -8 -13 25 -3 25 -4 52 0 60 8 21 21 -61 13 -85z
m-1147 57 c-3 -3 -11 0 -18 7 -9 10 -8 11 6 5 10 -3 15 -9 12 -12z m80 -82
c10 -11 16 -20 13 -20 -3 0 -13 9 -23 20 -10 11 -16 20 -13 20 3 0 13 -9 23
-20z m39 -36 c3 -8 2 -12 -4 -9 -6 3 -10 10 -10 16 0 14 7 11 14 -7z m89 -87
c29 -30 34 -41 16 -35 -6 2 -9 6 -7 9 2 3 -17 25 -42 49 -25 24 -34 35 -20 24
14 -10 37 -31 53 -47z m959 41 c-7 -7 -12 -8 -12 -2 0 14 12 26 19 19 2 -3 -1
-11 -7 -17z m14 -75 c-10 -10 -19 5 -10 18 6 11 8 11 12 0 2 -7 1 -15 -2 -18z
m-911 -33 l20 -25 -22 19 c-13 11 -23 24 -23 29 0 6 1 8 3 6 1 -2 11 -15 22
-29z m-3513 -2 c14 -13 76 -79 138 -148 62 -69 143 -156 179 -195 37 -38 136
-146 221 -240 85 -93 229 -251 320 -350 138 -150 321 -353 374 -415 29 -34 25
-42 -4 -10 -17 19 -57 62 -89 95 -32 33 -104 112 -162 175 -57 63 -106 117
-109 120 -6 5 -72 78 -165 180 -22 25 -98 108 -170 185 -126 137 -453 496
-530 583 -41 46 -42 55 -3 20z m3603 -89 c13 -20 0 -16 -25 8 -23 23 -23 24
-3 14 12 -6 25 -16 28 -22z m832 9 c-3 -8 -6 -5 -6 6 -1 11 2 17 5 13 3 -3 4
-12 1 -19z m-787 -59 c15 -28 5 -23 -15 7 -9 15 -12 23 -6 20 6 -4 16 -16 21
-27z m810 15 c0 -8 -5 -12 -10 -9 -6 4 -8 11 -5 16 9 14 15 11 15 -7z m2113
-1 c-7 -2 -15 -20 -19 -39 -3 -19 -10 -37 -15 -40 -5 -3 -7 -10 -4 -15 4 -5 1
-9 -6 -9 -7 0 -9 -3 -6 -7 4 -3 2 -12 -4 -20 -6 -7 -8 -13 -3 -13 5 0 3 -4 -4
-8 -7 -5 -14 -19 -17 -33 -6 -32 -47 -122 -60 -131 -5 -4 -7 -8 -3 -8 4 0 -6
-30 -21 -67 -34 -81 -278 -644 -421 -973 -57 -129 -118 -271 -137 -315 -19
-44 -43 -98 -53 -120 -22 -48 -68 -152 -71 -163 -2 -4 -8 -13 -15 -20 -7 -7
-10 -20 -7 -30 4 -13 3 -14 -6 -6 -9 8 -2 33 28 100 22 49 175 404 341 789
166 385 310 718 320 740 58 130 91 207 115 265 15 36 34 80 42 98 7 17 19 32
26 31 9 0 9 -2 0 -6z m-2112 -76 c-8 -8 -11 -7 -11 4 0 20 13 34 18 19 3 -7
-1 -17 -7 -23z m-720 -24 c13 -16 12 -17 -3 -4 -10 7 -18 15 -18 17 0 8 8 3
21 -13z m736 -25 c-3 -8 -6 -5 -6 6 -1 11 2 17 5 13 3 -3 4 -12 1 -19z m-2796
-15 c13 -16 12 -17 -3 -4 -10 7 -18 15 -18 17 0 8 8 3 21 -13z m2090 0 c13
-16 12 -17 -3 -4 -10 7 -18 15 -18 17 0 8 8 3 21 -13z m709 -50 c-11 -17 -11
-17 -6 0 3 10 6 24 7 30 0 9 2 9 5 0 3 -7 0 -20 -6 -30z m-2729 -10 c13 -16
12 -17 -3 -4 -10 7 -18 15 -18 17 0 8 8 3 21 -13z m2740 -50 c-12 -20 -14 -14
-5 12 4 9 9 14 11 11 3 -2 0 -13 -6 -23z m19 -50 c0 -16 3 -39 6 -53 4 -18 1
-16 -10 9 -18 38 -21 71 -6 71 6 0 10 -12 10 -27z m20 -124 c0 -11 -4 -17 -10
-14 -5 3 -10 13 -10 21 0 8 5 14 10 14 6 0 10 -9 10 -21z m6 -66 c-11 -11 -17
4 -9 23 7 18 8 18 11 1 2 -10 1 -21 -2 -24z m14 -43 c0 -11 -4 -20 -10 -20 -5
0 -10 9 -10 20 0 11 5 20 10 20 6 0 10 -9 10 -20z m10 -65 c0 -5 -5 -3 -10 5
-5 8 -10 20 -10 25 0 6 5 3 10 -5 5 -8 10 -19 10 -25z m8005 -25 c-3 -5 -12
-10 -18 -10 -7 0 -6 4 3 10 19 12 23 12 15 0z m-65 -24 c0 -2 -11 -6 -25 -8
-13 -3 -22 -1 -19 3 5 9 44 13 44 5z m-60 -10 c0 -3 -4 -8 -10 -11 -5 -3 -10
-1 -10 4 0 6 5 11 10 11 6 0 10 -2 10 -4z m-40 -16 c0 -5 -5 -10 -11 -10 -5 0
-7 5 -4 10 3 6 8 10 11 10 2 0 4 -4 4 -10z m-30 -4 c0 -3 -4 -8 -10 -11 -5 -3
-10 -1 -10 4 0 6 5 11 10 11 6 0 10 -2 10 -4z m-60 -20 c0 -3 -4 -8 -10 -11
-5 -3 -10 -1 -10 4 0 6 5 11 10 11 6 0 10 -2 10 -4z m-69 -29 c-10 -9 -11 -8
-5 6 3 10 9 15 12 12 3 -3 0 -11 -7 -18z m-30 0 c-10 -13 -75 -37 -111 -42 -8
-1 -22 -5 -30 -8 -50 -21 -103 -36 -111 -31 -5 3 -9 0 -9 -6 0 -7 -6 -10 -14
-7 -8 3 -16 3 -18 -2 -2 -4 -217 -73 -478 -153 -261 -80 -601 -185 -755 -233
-154 -48 -410 -127 -570 -176 -392 -122 -3677 -1132 -3787 -1165 -10 -3 -18
-2 -18 3 0 5 10 9 22 10 11 1 24 7 28 13 4 6 11 10 16 8 12 -3 106 23 120 33
6 5 21 11 35 13 13 3 25 5 27 7 1 1 7 3 12 4 6 1 11 3 13 5 1 1 9 3 17 6 8 2
222 69 475 148 253 79 759 237 1125 349 366 113 994 307 1395 430 402 124
1018 313 1370 421 352 108 663 204 690 213 28 9 57 17 65 17 9 1 20 5 25 8 8
5 79 27 105 33 20 4 160 48 178 56 13 5 27 7 32 4 5 -3 11 -1 15 4 3 6 12 8
20 4 8 -3 15 0 15 6 0 6 7 8 15 5 8 -4 15 -2 15 2 0 5 12 10 27 11 15 0 29 6
31 12 2 6 8 11 14 11 7 0 7 -5 -1 -13z m-7621 -45 c0 -15 -2 -15 -10 -2 -13
20 -13 33 0 25 6 -3 10 -14 10 -23z m6147 -68 c-3 -3 -12 -4 -19 -1 -8 3 -5 6
6 6 11 1 17 -2 13 -5z m-116 -35 c-30 -10 -56 -17 -58 -15 -5 5 77 34 97 34 8
1 -9 -8 -39 -19z m-6014 -21 c-3 -8 -6 -5 -6 6 -1 11 2 17 5 13 3 -3 4 -12 1
-19z m5933 2 c-8 -5 -19 -10 -25 -10 -5 0 -3 5 5 10 8 5 20 10 25 10 6 0 3 -5
-5 -10z m-65 -19 c-6 -5 -21 -11 -35 -15 -21 -5 -20 -3 5 9 35 17 42 18 30 6z
m-5858 -53 c-3 -7 -5 -2 -5 12 0 14 2 19 5 13 2 -7 2 -19 0 -25z m5773 22
c-34 -11 -60 -11 -35 0 11 5 29 8 40 8 16 0 15 -2 -5 -8z m-110 -30 c-8 -5
-24 -9 -35 -9 -16 1 -16 2 5 9 35 11 48 11 30 0z m-70 -20 c-8 -5 -19 -10 -25
-10 -5 0 -3 5 5 10 8 5 20 10 25 10 6 0 3 -5 -5 -10z m-43 -16 c-3 -3 -12 -4
-19 -1 -8 3 -5 6 6 6 11 1 17 -2 13 -5z m-110 -30 c-3 -3 -12 -4 -19 -1 -8 3
-5 6 6 6 11 1 17 -2 13 -5z m-8752 -254 c10 -11 15 -20 10 -20 -4 0 -1 -8 6
-17 13 -16 12 -17 -3 -5 -10 8 -16 18 -15 22 1 5 -7 16 -18 24 -11 8 -15 16
-9 16 6 0 19 -9 29 -20z m2696 -37 c13 -16 12 -17 -3 -4 -10 7 -18 15 -18 17
0 8 8 3 21 -13z m-12321 -236 c0 -2 -10 -12 -22 -23 l-23 -19 19 23 c18 21 26
27 26 19z m6620 -12 c0 -2 -10 -9 -22 -15 -22 -11 -22 -10 -4 4 21 17 26 19
26 11z m-50 -33 c0 -4 -10 -13 -22 -21 -23 -14 -23 -14 -4 8 20 22 26 25 26
13z m-90 -66 c0 -2 -8 -10 -17 -17 -16 -13 -17 -12 -4 4 13 16 21 21 21 13z
m-6600 -9 c0 -2 -17 -19 -37 -38 l-38 -34 34 38 c33 34 41 42 41 34z m6499
-70 c-2 -1 -13 -9 -24 -17 -19 -14 -19 -14 -6 3 7 9 18 17 24 17 6 0 8 -1 6
-3z m-49 -31 c0 -2 -8 -10 -17 -17 -16 -13 -17 -12 -4 4 13 16 21 21 21 13z
m-40 -30 c0 -2 -8 -10 -17 -17 -16 -13 -17 -12 -4 4 13 16 21 21 21 13z m3305
-31 l20 -16 -20 10 c-11 5 -29 17 -40 26 l-20 16 20 -10 c11 -5 29 -17 40 -26z
m-3345 1 c0 -4 -217 -167 -240 -181 -30 -17 -1 7 116 95 120 90 124 93 124 86z
m-6570 -40 c0 -2 -8 -10 -17 -17 -16 -13 -17 -12 -4 4 13 16 21 21 21 13z
m-40 -39 c0 -1 -66 -67 -147 -147 l-148 -145 145 148 c134 137 150 152 150
144z m13301 -84 c13 -16 12 -17 -3 -4 -10 7 -18 15 -18 17 0 8 8 3 21 -13z
m-6961 -37 c0 -2 -8 -10 -17 -17 -16 -13 -17 -12 -4 4 13 16 21 21 21 13z
m-65 -51 c-41 -34 -122 -91 -110 -77 14 15 129 101 135 101 3 0 -8 -11 -25
-24z m-125 -88 c0 -2 -10 -12 -22 -23 l-23 -19 19 23 c18 21 26 27 26 19z
m-6450 -40 c0 -2 -17 -19 -37 -38 l-38 -34 34 38 c33 34 41 42 41 34z m6320
-62 c0 -2 -10 -9 -22 -15 -22 -11 -22 -10 -4 4 21 17 26 19 26 11z m-6400 -19
c0 -2 -8 -10 -17 -17 -16 -13 -17 -12 -4 4 13 16 21 21 21 13z m-40 -39 c0 -2
-17 -19 -37 -38 l-38 -34 34 38 c33 34 41 42 41 34z m6360 -2 c0 -2 -10 -9
-22 -15 -22 -11 -22 -10 -4 4 21 17 26 19 26 11z m-6440 -79 c0 -2 -8 -10 -17
-17 -16 -13 -17 -12 -4 4 13 16 21 21 21 13z m-100 -99 c0 -2 -10 -12 -22 -23
l-23 -19 19 23 c18 21 26 27 26 19z m-70 -70 c0 -2 -12 -14 -27 -28 l-28 -24
24 28 c23 25 31 32 31 24z m500 -2 c0 -5 -69 -35 -79 -34 -5 0 68 38 77 39 1
0 2 -2 2 -5z m-91 -39 c-2 -2 -15 -9 -29 -15 -24 -11 -24 -11 -6 3 16 13 49
24 35 12z m-476 -28 c-3 -7 -42 -47 -87 -88 l-81 -75 85 88 c46 48 86 87 87
87 1 0 0 -6 -4 -12z m407 -3 c-7 -9 -15 -13 -19 -10 -3 3 1 10 9 15 21 14 24
12 10 -5z m-44 -20 c-11 -8 -27 -15 -35 -15 -9 1 -2 7 14 15 39 18 44 18 21 0z
m4628 -5 c-17 -17 -124 -79 -124 -72 0 4 28 23 63 44 67 39 76 43 61 28z
m-4704 -24 c0 -2 -7 -7 -16 -10 -8 -3 -12 -2 -9 4 6 10 25 14 25 6z m14473
-26 c3 -11 1 -18 -4 -14 -5 3 -9 12 -9 20 0 20 7 17 13 -6z m-14513 6 c0 -2
-7 -7 -16 -10 -8 -3 -12 -2 -9 4 6 10 25 14 25 6z m-54 -21 c-11 -8 -25 -15
-30 -15 -6 1 0 7 14 15 32 19 40 18 16 0z m4664 -19 c0 -2 -7 -7 -16 -10 -8
-3 -12 -2 -9 4 6 10 25 14 25 6z m-4770 -26 c-8 -5 -19 -10 -25 -10 -5 0 -3 5
5 10 8 5 20 10 25 10 6 0 3 -5 -5 -10z m-45 -20 c-3 -5 -12 -10 -18 -10 -7 0
-6 4 3 10 19 12 23 12 15 0z m-36 -13 c-2 -1 -11 -8 -21 -15 -12 -10 -18 -10
-24 -1 -4 7 -3 9 4 5 6 -3 13 -2 17 4 3 5 11 10 17 10 6 0 9 -1 7 -3z"/>
<path d="M20729 17063 c-13 -16 -12 -17 4 -4 16 13 21 21 13 21 -2 0 -10 -8
-17 -17z"/>
<path d="M20684 17008 l-19 -23 23 19 c21 18 27 26 19 26 -2 0 -12 -10 -23
-22z"/>
<path d="M20639 16953 c-13 -16 -12 -17 4 -4 16 13 21 21 13 21 -2 0 -10 -8
-17 -17z"/>
<path d="M20342 16603 c-153 -181 -315 -371 -360 -423 -45 -52 -78 -98 -73
-103 16 -16 57 5 86 46 16 23 45 62 66 87 20 25 136 173 259 330 123 157 244
309 268 338 24 28 42 52 39 52 -3 0 -131 -147 -285 -327z"/>
<path d="M13803 16553 c15 -2 39 -2 55 0 15 2 2 4 -28 4 -30 0 -43 -2 -27 -4z"/>
<path d="M14138 16523 c12 -2 32 -2 45 0 12 2 2 4 -23 4 -25 0 -35 -2 -22 -4z"/>
<path d="M14263 16513 c9 -2 23 -2 30 0 6 3 -1 5 -18 5 -16 0 -22 -2 -12 -5z"/>
<path d="M14363 16503 c9 -2 25 -2 35 0 9 3 1 5 -18 5 -19 0 -27 -2 -17 -5z"/>
<path d="M14588 16483 c7 -3 16 -2 19 1 4 3 -2 6 -13 5 -11 0 -14 -3 -6 -6z"/>
<path d="M20740 16370 c-13 -9 -13 -10 0 -10 8 0 22 5 30 10 13 9 13 10 0 10
-8 0 -22 -5 -30 -10z"/>
<path d="M20577 16313 c-70 -25 -126 -48 -124 -50 4 -4 257 84 266 92 10 10
-19 2 -142 -42z"/>
<path d="M20337 16228 c-32 -11 -56 -22 -54 -24 4 -5 127 36 127 42 0 6 -11 4
-73 -18z"/>
<path d="M20135 16155 c-25 -12 -26 -14 -5 -9 28 7 60 23 45 23 -5 0 -23 -6
-40 -14z"/>
<path d="M20036 16141 c-6 -10 24 -25 32 -16 3 3 -1 5 -9 5 -11 0 -11 2 1 10
13 8 13 10 -2 10 -9 0 -19 -4 -22 -9z"/>
<path d="M20015 16110 c-3 -6 1 -7 9 -4 18 7 21 14 7 14 -6 0 -13 -4 -16 -10z"/>
<path d="M19904 15968 c-19 -21 -19 -21 6 -8 33 17 33 17 22 24 -5 3 -18 -4
-28 -16z"/>
<path d="M15611 14523 c142 -146 316 -327 409 -426 67 -71 85 -85 97 -75 9 7
13 7 11 1 -3 -11 86 -113 98 -113 3 0 4 9 1 21 -3 12 -2 31 3 44 8 20 6 22
-21 21 -16 0 -29 -5 -29 -10 0 -5 -3 -7 -6 -3 -3 3 1 15 9 27 11 16 16 18 21
8 3 -7 4 -2 2 11 -3 14 0 31 6 38 8 10 8 17 -2 26 -9 9 -11 9 -6 0 8 -14 -10
-27 -19 -13 -4 6 -11 8 -16 4 -5 -3 -9 -2 -8 3 3 19 -2 34 -10 28 -5 -3 -13 0
-17 6 -4 8 -3 9 4 5 17 -11 15 9 -3 24 -12 10 -15 10 -15 0 0 -8 -3 -10 -6 -7
-12 11 16 36 36 32 10 -2 24 3 30 11 13 14 34 9 25 -6 -3 -5 0 -12 6 -16 7 -4
9 -3 6 3 -3 5 0 10 8 10 8 0 11 -5 8 -10 -3 -6 -1 -7 6 -3 6 4 9 12 6 17 -4 5
-1 9 6 9 7 0 9 3 6 6 -4 4 -13 1 -21 -5 -12 -10 -15 -9 -13 8 1 12 5 21 9 21
14 0 48 -39 48 -55 0 -8 6 -12 15 -9 8 3 14 9 13 12 -2 21 4 33 23 43 17 9 20
8 17 -3 -3 -7 8 -21 24 -30 30 -19 37 -38 13 -38 -23 0 -18 -14 10 -27 14 -6
25 -7 25 -2 0 5 -4 9 -10 9 -5 0 -10 5 -10 10 0 15 16 12 34 -5 21 -21 28 -19
14 4 -7 11 -15 18 -19 15 -4 -2 -11 1 -14 7 -5 6 0 9 11 8 11 -2 25 0 32 4 7
5 12 4 12 -2 0 -6 -5 -11 -11 -11 -5 0 -7 -5 -3 -11 5 -8 10 -6 16 5 6 11 6
22 -1 30 -11 13 -5 26 11 26 5 0 6 -5 2 -12 -5 -8 -2 -9 11 -5 22 9 46 -9 38
-29 -3 -8 0 -14 6 -14 20 0 26 5 23 20 -2 10 1 9 9 -3 12 -21 5 -48 -12 -45
-6 2 -14 -4 -16 -12 -4 -13 -3 -13 6 0 11 15 12 13 15 -29 0 -11 4 -22 8 -26
3 -4 5 1 4 12 -2 10 2 24 8 32 9 12 8 13 -3 7 -9 -6 -12 -4 -9 5 3 8 10 14 17
14 6 0 16 7 21 15 9 13 10 13 10 0 0 -13 1 -13 10 0 5 8 10 10 10 4 0 -6 7
-11 15 -11 21 0 4 16 -23 22 -12 2 -31 11 -43 19 -12 8 -28 12 -37 9 -9 -4
-13 -2 -9 3 7 12 -58 38 -73 29 -5 -3 -10 -1 -10 4 0 6 -7 11 -15 11 -8 0 -15
5 -15 11 0 21 -33 4 -37 -19 -2 -16 1 -22 9 -19 7 2 12 9 11 15 -2 8 5 8 23 0
15 -7 21 -14 15 -16 -6 -2 -9 -8 -5 -13 3 -5 0 -9 -5 -9 -6 0 -11 7 -11 16 0
8 -5 12 -10 9 -6 -4 -7 -11 -4 -17 4 -6 1 -8 -7 -4 -8 3 -21 8 -29 12 -9 3
-21 22 -27 42 -9 28 -9 34 0 22 14 -17 37 -24 37 -11 0 11 -62 41 -72 35 -4
-3 -8 1 -8 8 0 7 -6 2 -13 -12 -7 -14 -18 -25 -25 -25 -7 0 -17 -7 -22 -15 -8
-12 -10 -12 -10 -1 0 8 -3 11 -7 8 -3 -4 -11 -2 -18 3 -8 7 -12 5 -12 -5 0 -8
3 -12 7 -10 4 2 7 -2 7 -10 0 -11 -4 -12 -13 -4 -8 7 -14 7 -19 -1 -3 -6 -10
-8 -15 -5 -5 3 -12 1 -15 -5 -5 -8 -11 -7 -21 1 -8 6 -15 9 -15 5 -1 -3 -2
-10 -3 -15 0 -5 -4 -12 -8 -16 -3 -4 -5 0 -4 9 1 9 7 21 14 28 9 9 8 17 -6 32
-15 18 -15 19 0 8 11 -9 18 -10 23 -2 3 6 10 8 14 6 4 -3 12 8 18 25 9 24 9
29 -3 29 -9 0 -12 -5 -8 -12 4 -7 3 -8 -5 -4 -6 4 -9 12 -6 17 11 17 35 9 52
-18 21 -34 46 -54 53 -44 3 4 13 10 23 14 37 14 15 40 -43 51 -3 1 -11 5 -17
9 -7 5 -13 5 -13 1 0 -4 -8 -1 -17 7 -15 13 -144 69 -498 217 -33 14 -85 36
-115 49 l-55 24 96 -98z m629 -226 c9 3 11 1 5 -4 -5 -4 -13 -12 -16 -16 -3
-4 -11 5 -18 20 -9 23 -9 25 1 12 7 -9 20 -14 28 -12z m40 -17 c0 -5 -4 -10
-10 -10 -5 0 -10 5 -10 10 0 6 5 10 10 10 6 0 10 -4 10 -10z m52 -44 c7 4 8 2
4 -5 -4 -6 -11 -9 -16 -6 -5 3 -12 -6 -16 -20 -3 -13 -9 -23 -13 -21 -11 7 -4
61 8 59 6 -2 12 3 12 10 1 6 3 4 6 -6 2 -9 9 -14 15 -11z m-58 -12 c3 -8 2
-12 -4 -9 -6 3 -10 10 -10 16 0 14 7 11 14 -7z m324 -95 c-3 -8 -7 -3 -11 10
-4 17 -3 21 5 13 5 -5 8 -16 6 -23z m-508 -84 c13 -14 21 -25 18 -25 -2 0 -15
11 -28 25 -13 14 -21 25 -18 25 2 0 15 -11 28 -25z m127 -71 c-3 -3 -12 -4
-19 -1 -8 3 -5 6 6 6 11 1 17 -2 13 -5z"/>
<path d="M16172 14271 c-6 -17 -17 -30 -24 -29 -6 2 -13 -4 -13 -12 -2 -23 5
-31 18 -23 7 4 17 8 22 8 6 0 10 9 10 20 0 11 4 23 9 26 4 4 4 14 -1 24 -9 15
-12 13 -21 -14z m-17 -40 c3 -5 2 -12 -3 -15 -5 -3 -9 1 -9 9 0 17 3 19 12 6z"/>
<path d="M16370 14209 c0 -5 5 -7 10 -4 6 3 10 8 10 11 0 2 -4 4 -10 4 -5 0
-10 -5 -10 -11z"/>
<path d="M16179 14174 c-9 -11 -10 -17 -1 -23 6 -4 8 -12 3 -20 -6 -9 -10 -6
-14 11 -4 14 -13 25 -20 25 -10 0 -5 -14 15 -44 16 -23 31 -43 32 -43 2 0 2
13 0 30 -4 29 9 49 20 31 4 -5 19 -8 34 -5 23 3 25 2 12 -8 -8 -7 -16 -20 -18
-28 -2 -8 -9 -21 -15 -29 -17 -21 -15 -68 3 -67 16 1 21 -35 6 -46 -6 -4 -5
-12 2 -20 8 -10 8 -18 1 -25 -7 -7 -1 -21 20 -44 17 -18 31 -30 31 -26 0 4 6
2 14 -5 8 -7 13 -17 13 -22 -1 -4 5 -10 13 -11 10 -2 17 5 18 19 1 16 -1 18
-8 6 -9 -14 -15 -6 -10 15 1 5 -2 7 -6 3 -4 -4 -16 2 -26 15 -11 12 -25 22
-31 22 -7 0 -12 25 -13 70 0 39 1 64 3 57 3 -6 10 -9 16 -5 7 3 9 3 5 -2 -4
-4 -3 -16 2 -26 7 -13 6 -20 -2 -26 -7 -4 -14 -16 -14 -25 -1 -10 3 -15 9 -11
5 3 7 2 4 -4 -3 -5 1 -10 9 -10 10 0 11 4 4 11 -13 13 -13 39 0 31 6 -4 8 -10
5 -15 -3 -5 0 -12 6 -16 7 -4 9 -3 6 2 -3 6 -1 16 5 24 8 12 9 12 4 -2 -3 -12
0 -18 9 -18 8 0 15 -6 15 -12 0 -10 2 -10 9 0 7 11 10 10 15 -3 3 -9 6 -18 6
-19 0 -1 -9 -2 -19 -2 -11 0 -19 4 -18 9 1 5 -4 12 -11 14 -7 3 -11 -1 -10 -9
2 -7 -3 -12 -10 -10 -8 1 -11 -2 -8 -7 3 -5 19 -8 36 -7 23 2 30 -2 31 -16 1
-10 2 -24 3 -30 1 -7 -1 -21 -6 -30 -5 -10 -4 -19 2 -23 6 -4 8 -10 5 -15 -5
-8 34 -37 56 -42 7 -2 14 4 14 12 1 8 6 14 13 12 7 -1 11 1 11 5 -1 5 0 11 1
16 4 12 7 27 9 38 0 6 8 9 15 6 11 -4 13 -1 9 10 -5 12 -3 14 8 7 23 -14 42
-14 30 0 -6 7 -8 15 -5 19 11 11 -24 1 -39 -11 -16 -14 -33 0 -23 17 8 12 -16
29 -36 26 -16 -3 -22 6 -19 27 0 4 -8 5 -19 3 -21 -4 -23 1 -22 48 0 15 -4 27
-9 27 -5 0 -9 9 -9 20 0 21 -50 36 -96 27 -19 -3 -24 -1 -20 10 3 8 6 18 6 21
0 4 5 0 10 -8 9 -13 10 -13 10 0 0 13 1 13 10 0 6 -10 10 -11 10 -2 0 6 9 12
21 12 11 0 17 5 14 10 -4 6 -10 8 -15 5 -5 -3 -7 8 -5 25 3 21 -1 33 -10 37
-8 3 -15 15 -15 27 0 15 -3 17 -9 7 -5 -7 -23 -14 -41 -16 -27 -2 -31 0 -27
16 6 23 3 24 -14 3z m104 -56 c-4 -7 -6 -22 -5 -33 2 -16 -3 -21 -22 -21 -19
0 -23 3 -14 13 5 7 15 10 21 6 6 -3 7 -1 3 6 -10 15 0 41 14 41 6 0 8 -5 3
-12z m47 -113 c6 -7 13 -20 14 -27 1 -7 5 -19 9 -25 15 -23 -4 -36 -20 -14 -8
12 -19 19 -24 16 -5 -4 -9 -4 -9 -1 0 2 -3 11 -6 20 -3 9 -1 16 6 16 6 0 9 -4
6 -8 -2 -4 4 -8 15 -8 18 0 18 2 5 12 -9 6 -12 15 -8 19 4 5 2 5 -5 1 -6 -3
-14 -2 -18 4 -10 16 21 12 35 -5z m65 -126 c-6 -9 -3 -10 38 -13 14 -1 21 -7
19 -18 -1 -9 2 -19 8 -23 7 -4 7 -12 0 -26 -6 -10 -8 -19 -4 -19 4 0 -2 -10
-14 -23 -12 -13 -19 -27 -15 -32 5 -4 -6 0 -24 10 -18 10 -30 22 -27 26 2 4 0
10 -6 14 -6 4 -7 13 -1 23 4 9 7 26 5 37 -4 28 6 66 17 59 5 -3 7 -10 4 -15z"/>
<path d="M16383 13855 c0 -7 6 -11 14 -8 7 3 13 6 13 8 0 2 -6 5 -13 8 -8 3
-14 -1 -14 -8z"/>
<path d="M16416 13821 c-3 -4 6 -7 19 -7 14 0 22 2 19 5 -8 8 -34 10 -38 2z"/>
<path d="M16375 13790 c-3 -6 1 -13 9 -16 9 -3 13 -10 10 -15 -3 -5 3 -6 12
-2 13 5 15 3 9 -8 -5 -8 -5 -11 1 -6 5 5 9 14 9 20 1 7 7 11 15 9 11 -3 11 0
1 12 -10 11 -18 13 -31 6 -24 -13 -33 -13 -25 0 3 6 4 10 1 10 -3 0 -8 -5 -11
-10z"/>
<path d="M16323 14177 c0 -7 11 -13 24 -13 27 -2 27 -1 -3 14 -15 8 -21 8 -21
-1z"/>
<path d="M16494 14143 c0 -12 4 -23 9 -23 4 0 5 -5 1 -11 -4 -7 3 -6 17 2 15
7 19 14 11 17 -6 2 -12 12 -12 21 0 10 -6 18 -13 18 -7 0 -13 -11 -13 -24z"/>
<path d="M16309 14137 c5 -5 17 -5 28 2 16 9 15 10 -9 9 -16 -2 -24 -6 -19
-11z"/>
<path d="M16200 14133 c0 -10 29 -51 30 -43 7 29 8 41 3 36 -4 -3 -12 -1 -20
5 -7 6 -13 7 -13 2z"/>
<path d="M16305 14110 c-10 -16 14 -40 39 -39 18 1 17 3 -6 12 -16 6 -28 14
-28 19 0 4 6 5 14 2 8 -3 17 -1 21 5 3 7 -2 11 -14 11 -11 0 -23 -5 -26 -10z"/>
<path d="M16470 14111 c0 -6 5 -13 10 -16 6 -4 3 -16 -10 -32 -11 -14 -20 -31
-20 -37 0 -6 9 4 20 22 13 21 26 32 35 28 8 -3 17 0 21 6 4 7 3 8 -4 4 -6 -4
-20 2 -32 14 -11 11 -20 16 -20 11z"/>
<path d="M16695 14111 c-3 -5 -2 -12 3 -15 5 -3 9 1 9 9 0 17 -3 19 -12 6z"/>
<path d="M16630 14104 c0 -6 7 -19 16 -30 14 -18 14 -18 3 6 -14 31 -19 36
-19 24z"/>
<path d="M16666 14092 c-3 -5 1 -9 9 -9 8 0 12 4 9 9 -3 4 -7 8 -9 8 -2 0 -6
-4 -9 -8z"/>
<path d="M16432 14076 c7 -8 15 -12 17 -11 5 6 -10 25 -20 25 -5 0 -4 -6 3
-14z"/>
<path d="M16597 14077 c-3 -8 1 -14 8 -14 7 0 11 6 8 14 -3 7 -6 13 -8 13 -2
0 -5 -6 -8 -13z"/>
<path d="M16526 14065 c-10 -8 -23 -12 -29 -8 -6 4 -7 1 -3 -6 5 -7 14 -10 21
-7 7 2 19 -1 26 -7 11 -10 11 -9 1 4 -9 12 -9 18 0 27 16 16 7 14 -16 -3z"/>
<path d="M16726 14067 c3 -10 9 -15 12 -12 3 3 0 11 -7 18 -10 9 -11 8 -5 -6z"/>
<path d="M16408 14063 c6 -2 12 -9 12 -14 0 -6 -5 -7 -12 -3 -7 5 -8 3 -3 -5
5 -9 11 -9 17 -3 12 12 2 32 -15 31 -9 0 -9 -2 1 -6z"/>
<path d="M16310 14050 c-15 -5 -18 -8 -8 -9 9 -1 23 -4 32 -7 11 -4 16 -1 16
10 0 17 -3 18 -40 6z"/>
<path d="M16785 14050 c-3 -5 -4 -10 0 -10 3 0 1 -9 -5 -19 -7 -14 -7 -22 0
-26 6 -4 10 -3 9 2 -4 22 2 34 14 27 9 -6 9 -5 0 8 -7 8 -10 18 -6 21 3 4 4 7
0 7 -3 0 -9 -4 -12 -10z"/>
<path d="M16596 14043 c6 -4 14 -15 17 -23 5 -11 6 -9 4 4 -1 11 -9 21 -17 23
-10 3 -11 2 -4 -4z"/>
<path d="M16686 14037 c3 -10 9 -15 12 -12 3 3 0 11 -7 18 -10 9 -11 8 -5 -6z"/>
<path d="M16711 14034 c0 -11 3 -14 6 -6 3 7 2 16 -1 19 -3 4 -6 -2 -5 -13z"/>
<path d="M16565 14020 c-4 -6 -16 -8 -28 -4 -19 6 -20 5 -5 -10 9 -9 22 -16
28 -16 6 0 9 -4 6 -9 -3 -4 3 -19 14 -31 11 -13 20 -18 20 -13 0 6 -7 16 -15
23 -8 7 -13 16 -10 20 3 5 1 12 -5 15 -8 5 -7 11 1 21 6 8 9 14 6 14 -3 0 -9
-5 -12 -10z"/>
<path d="M16653 14016 c1 -6 -5 -9 -13 -8 -8 2 -11 0 -7 -4 4 -5 19 -9 32 -10
18 -1 22 2 15 11 -5 6 -8 14 -5 17 3 2 -1 5 -9 5 -8 0 -14 -5 -13 -11z"/>
<path d="M16755 14019 c-4 -6 -5 -12 -2 -15 2 -3 7 2 10 11 7 17 1 20 -8 4z"/>
<path d="M16494 14006 c1 -8 5 -19 9 -23 4 -4 15 -8 23 -9 9 -1 13 1 9 4 -4 4
-12 7 -18 7 -7 0 -12 5 -12 12 0 6 -3 14 -7 18 -3 4 -5 0 -4 -9z"/>
<path d="M16437 14004 c18 -8 4 -34 -14 -27 -11 4 -14 1 -12 -12 6 -29 23 -27
37 2 16 36 15 43 -5 42 -10 0 -13 -3 -6 -5z"/>
<path d="M16260 13981 c0 -6 4 -13 10 -16 6 -3 7 1 4 9 -7 18 -14 21 -14 7z"/>
<path d="M16385 13980 c-3 -5 -1 -10 4 -10 6 0 11 5 11 10 0 6 -2 10 -4 10 -3
0 -8 -4 -11 -10z"/>
<path d="M16610 13986 c0 -2 7 -7 16 -10 8 -3 12 -2 9 4 -6 10 -25 14 -25 6z"/>
<path d="M16485 13960 c-8 -13 9 -20 24 -11 10 6 9 10 -3 14 -8 3 -18 2 -21
-3z"/>
<path d="M16665 13959 c-3 -4 2 -6 10 -5 21 3 28 13 10 13 -9 0 -18 -4 -20 -8z"/>
<path d="M16547 13946 c4 -13 3 -17 -5 -12 -6 3 -14 1 -18 -6 -4 -7 -3 -10 1
-5 5 4 18 -1 29 -10 12 -10 18 -14 14 -9 -4 5 -2 16 4 25 7 9 8 13 4 9 -5 -4
-15 0 -23 10 -12 16 -13 16 -6 -2z"/>
<path  class="animation" d="M16730 13956 c0 -2 8 -10 18 -17 15 -13 16 -12 3 4 -13 16 -21 21
-21 13z"/>
<path d="M16449 13924 c-5 -15 -7 -29 -4 -32 3 -3 5 1 5 9 0 11 2 12 9 1 6
-10 10 -9 14 7 3 14 1 19 -6 14 -6 -4 -8 0 -4 10 3 10 4 17 1 17 -2 0 -9 -12
-15 -26z"/>
<path d="M16683 13926 c1 -6 -3 -10 -10 -9 -13 3 -12 -22 2 -34 4 -4 5 -3 2 3
-7 12 16 38 25 29 2 -3 5 1 5 8 0 8 -6 14 -13 14 -7 0 -12 -5 -11 -11z"/>
<path d="M16583 13889 c2 -27 29 -35 33 -10 2 9 1 9 -3 0 -4 -8 -11 -3 -18 12
l-13 24 1 -26z"/>
<path d="M16492 13881 c-11 -6 -10 -10 4 -15 20 -8 32 0 18 14 -5 5 -15 5 -22
1z"/>
<path d="M16576 13835 c-11 -8 -15 -15 -9 -15 6 0 16 7 23 15 16 19 11 19 -14
0z"/>
<path d="M16573 13796 c-3 -6 -3 -8 2 -4 4 4 13 3 20 -2 8 -7 12 -5 12 3 0 16
-25 18 -34 3z"/>
<path d="M16484 13773 c3 -6 0 -14 -6 -16 -10 -4 -10 -6 0 -6 7 -1 10 -6 6
-13 -4 -6 -3 -8 4 -4 6 3 14 2 17 -4 5 -8 11 -8 19 -1 7 6 15 9 18 6 2 -3 5 2
5 10 0 13 -3 13 -19 -2 -10 -9 -19 -13 -19 -10 -1 4 -2 11 -3 17 0 5 -7 15
-15 22 -8 8 -11 8 -7 1z"/>
<path d="M16473 13700 c2 -14 8 -23 12 -22 4 2 11 -2 15 -8 5 -8 9 -7 13 5 4
9 3 13 -2 10 -5 -3 -17 5 -26 17 l-16 23 4 -25z"/>
<path d="M16445 13700 c3 -5 8 -10 11 -10 2 0 4 5 4 10 0 6 -5 10 -11 10 -5 0
-7 -4 -4 -10z"/>
<path d="M16560 13640 c-12 -7 -10 -9 7 -7 12 0 19 5 17 9 -6 10 -6 10 -24 -2z"/>
<path d="M12408 9283 c12 -2 32 -2 45 0 12 2 2 4 -23 4 -25 0 -35 -2 -22 -4z"/>
<path d="M12298 9273 c6 -2 18 -2 25 0 6 3 1 5 -13 5 -14 0 -19 -2 -12 -5z"/>
<path d="M11148 9193 c12 -2 30 -2 40 0 9 3 -1 5 -23 4 -22 0 -30 -2 -17 -4z"/>
<path d="M11053 9183 c9 -2 23 -2 30 0 6 3 -1 5 -18 5 -16 0 -22 -2 -12 -5z"/>
<path d="M10943 9173 c9 -2 25 -2 35 0 9 3 1 5 -18 5 -19 0 -27 -2 -17 -5z"/>
<path d="M10853 9163 c9 -2 23 -2 30 0 6 3 -1 5 -18 5 -16 0 -22 -2 -12 -5z"/>
<path d="M10733 9153 c9 -2 25 -2 35 0 9 3 1 5 -18 5 -19 0 -27 -2 -17 -5z"/>
<path d="M10643 9143 c9 -2 23 -2 30 0 6 3 -1 5 -18 5 -16 0 -22 -2 -12 -5z"/>
<path d="M10533 9133 c9 -2 25 -2 35 0 9 3 1 5 -18 5 -19 0 -27 -2 -17 -5z"/>
<path d="M10433 9123 c9 -2 25 -2 35 0 9 3 1 5 -18 5 -19 0 -27 -2 -17 -5z"/>
<path d="M10333 9113 c9 -2 23 -2 30 0 6 3 -1 5 -18 5 -16 0 -22 -2 -12 -5z"/>
<path d="M10223 9103 c9 -2 23 -2 30 0 6 3 -1 5 -18 5 -16 0 -22 -2 -12 -5z"/>
<path d="M10123 9093 c9 -2 25 -2 35 0 9 3 1 5 -18 5 -19 0 -27 -2 -17 -5z"/>
<path d="M10013 9083 c9 -2 25 -2 35 0 9 3 1 5 -18 5 -19 0 -27 -2 -17 -5z"/>
<path d="M25715 6565 c11 -9 29 -21 40 -26 l20 -10 -20 16 c-11 9 -29 21 -40
26 l-20 10 20 -16z"/>
<path d="M25787 6519 c7 -7 15 -10 18 -7 3 3 -2 9 -12 12 -14 6 -15 5 -6 -5z"/>
<path d="M25930 6436 c0 -3 9 -10 20 -16 11 -6 20 -8 20 -6 0 3 -9 10 -20 16
-11 6 -20 8 -20 6z"/>
<path d="M25995 6395 c11 -9 29 -21 40 -26 l20 -10 -20 16 c-11 9 -29 21 -40
26 l-20 10 20 -16z"/>
<path d="M13146 7264 c-10 -14 -16 -28 -13 -30 2 -3 12 7 21 22 10 14 16 28
13 30 -2 3 -12 -7 -21 -22z"/>
<path d="M13030 7087 c-34 -55 -52 -87 -47 -87 8 0 70 100 65 105 -2 2 -10 -6
-18 -18z"/>
<path d="M12920 6915 c-7 -9 -10 -18 -7 -21 3 -3 10 4 17 15 13 25 8 27 -10 6z"/>
<path d="M12856 6813 c-6 -14 -5 -15 5 -6 7 7 10 15 7 18 -3 3 -9 -2 -12 -12z"/>
<path d="M12793 6717 c-11 -18 -41 -63 -66 -102 -24 -38 -98 -153 -164 -255
-131 -204 -141 -220 -125 -205 16 15 384 587 380 590 -2 2 -13 -11 -25 -28z"/>
<path d="M12378 6073 c-62 -94 -83 -130 -71 -118 19 18 127 185 120 185 -2 0
-24 -30 -49 -67z"/>
<path d="M12276 5915 c-9 -14 -23 -37 -32 -52 l-16 -28 20 24 c24 29 55 81 49
81 -3 0 -12 -11 -21 -25z"/>
<path d="M19940 5886 c0 -8 170 -216 176 -216 10 0 -2 16 -72 102 -92 112
-104 125 -104 114z"/>
<path d="M19724 5848 l-29 -33 33 29 c30 28 37 36 29 36 -2 0 -16 -15 -33 -32z"/>
<path d="M20168 5605 c20 -30 284 -351 304 -370 48 -46 -213 281 -295 369
l-29 31 20 -30z"/>
<path d="M20529 5165 c6 -11 34 -45 62 -75 28 -30 42 -41 30 -25 -29 42 -104
124 -92 100z"/>
<path d="M20660 5000 c0 -5 5 -10 11 -10 5 0 7 5 4 10 -3 6 -8 10 -11 10 -2 0
-4 -4 -4 -10z"/>
<path d="M18449 4483 c-13 -16 -12 -17 4 -4 16 13 21 21 13 21 -2 0 -10 -8
-17 -17z"/>
<path d="M11945 5404 c-31 -47 -59 -93 -62 -102 -3 -10 22 24 54 73 74 112 75
115 70 115 -3 0 -31 -39 -62 -86z"/>
<path d="M25590 3606 c0 -2 8 -10 18 -17 15 -13 16 -12 3 4 -13 16 -21 21 -21
13z"/>
<path d="M25720 3465 c13 -14 26 -25 28 -25 3 0 -5 11 -18 25 -13 14 -26 25
-28 25 -3 0 5 -11 18 -25z"/>
<path d="M25840 3335 c19 -19 36 -35 39 -35 3 0 -10 16 -29 35 -19 19 -36 35
-39 35 -3 0 10 -16 29 -35z"/>
<path d="M25950 3215 c13 -14 26 -25 28 -25 3 0 -5 11 -18 25 -13 14 -26 25
-28 25 -3 0 5 -11 18 -25z"/>
<path d="M20729 4925 c15 -29 70 -92 70 -80 0 6 -18 30 -40 55 -23 25 -36 36
-30 25z"/>
<path d="M38045 17432 c-33 -1 -397 -13 -810 -27 -831 -28 -1569 -53 -2650
-90 -396 -14 -990 -34 -1320 -45 -1119 -37 -4041 -148 -4065 -153 -8 -2 -278
-177 -600 -388 -322 -211 -667 -438 -768 -504 -100 -66 -269 -177 -375 -247
-105 -70 -406 -267 -667 -438 -261 -171 -624 -409 -805 -528 -182 -119 -447
-293 -590 -387 -228 -148 -439 -287 -1340 -880 -110 -72 -285 -187 -390 -256
-345 -225 -732 -487 -766 -518 -18 -17 -41 -31 -50 -31 -8 0 -16 -7 -16 -15 0
-9 7 -13 16 -11 9 3 113 32 231 66 118 34 328 95 465 135 138 41 441 130 675
199 1660 486 2831 834 2847 848 7 5 17 7 23 3 5 -3 10 -1 10 5 0 7 6 10 14 7
8 -3 16 -2 18 2 2 5 39 20 83 35 44 14 112 37 150 52 39 14 83 28 99 31 16 3
39 11 50 18 12 7 62 25 111 40 50 15 108 33 130 41 35 11 282 80 430 120 27 7
51 11 54 9 2 -3 9 0 16 5 7 5 25 12 41 14 16 2 41 8 55 14 35 14 106 33 144
39 30 4 86 19 115 30 8 4 22 7 30 7 8 1 20 4 25 7 6 4 30 10 55 14 25 3 69 15
98 26 30 11 58 17 63 13 6 -3 15 -1 22 4 7 5 28 13 47 16 38 8 42 9 328 91
106 30 195 55 198 55 2 0 4 7 4 15 0 17 16 21 22 5 4 -12 -77 -35 933 260 696
203 674 197 768 224 353 104 859 253 1337 393 311 91 662 194 780 228 118 35
478 141 800 235 322 94 774 227 1005 295 231 68 1021 300 1755 515 734 215
1346 395 1360 400 25 9 -32 9 -195 2z"/>
<path d="M24983 14396 c-67 -45 -126 -86 -130 -91 -9 -11 7 0 147 90 114 74
129 85 115 84 -6 0 -65 -37 -132 -83z"/>
<path d="M25898 13773 c7 -3 16 -2 19 1 4 3 -2 6 -13 5 -11 0 -14 -3 -6 -6z"/>
</g>
</svg>
